<?xml version="1.0" standalone="no"?>
<!DOCTYPE svg PUBLIC "-//W3C//DTD SVG 20010904//EN"
 "http://www.w3.org/TR/2001/REC-SVG-20010904/DTD/svg10.dtd">
<svg version="1.0" xmlns="http://www.w3.org/2000/svg"
 width="180.000000pt" height="180.000000pt" viewBox="0 0 180.000000 180.000000"
 preserveAspectRatio="xMidYMid meet">
<metadata>
Created by potrace 1.14, written by Peter Selinger 2001-2017
</metadata>
<g transform="translate(0.000000,180.000000) scale(0.100000,-0.100000)"
fill="#000000" stroke="none">
<path d="M972 1779 c-67 -26 -138 -97 -176 -175 -16 -32 -31 -61 -33 -63 -1
-2 -17 11 -35 28 -18 18 -65 48 -104 68 -61 29 -81 35 -138 34 -139 -1 -257
-95 -305 -243 -7 -21 -39 -67 -73 -104 -80 -89 -101 -138 -102 -239 -1 -64 4
-90 22 -128 30 -63 96 -127 168 -162 33 -16 61 -31 63 -32 3 -2 -9 -18 -26
-36 -176 -189 -119 -452 117 -538 38 -14 81 -41 124 -80 37 -32 79 -65 94 -72
168 -84 354 -15 438 161 34 71 33 70 47 52 19 -24 89 -75 129 -93 39 -19 109
-34 144 -31 120 8 232 94 281 215 19 47 45 89 80 127 75 81 106 149 110 234 5
133 -67 245 -198 306 l-60 28 34 42 c106 126 127 242 68 366 -40 82 -99 130
-223 179 -20 9 -64 41 -98 72 -77 71 -129 94 -222 100 -59 4 -83 1 -126 -16z
m-88 -739 c9 -22 16 -57 16 -77 0 -34 -1 -36 -16 -21 -16 16 -37 138 -23 138
4 0 14 -18 23 -40z m196 -101 c0 -12 -80 -39 -116 -39 -31 0 -35 2 -24 15 17
21 140 42 140 24z m-221 -54 c-16 -17 -94 -33 -124 -27 -31 7 50 40 100 41 35
1 38 -1 24 -14z m81 -95 c4 -70 0 -77 -21 -35 -19 40 -25 96 -12 109 11 10 31
-35 33 -74z"/>
</g>
</svg>
