<svg width="100" height="100" viewBox="0 0 100 100" fill="none" xmlns="http://www.w3.org/2000/svg">
<path d="M97.4762 60.4349L91.9045 56.5521C91.653 56.3675 91.4556 56.1188 91.3327 55.8321C91.2098 55.5453 91.1659 55.2308 91.2056 54.9214C91.5324 52.1505 91.5779 49.3536 91.3415 46.5735C91.3111 46.2644 91.3655 45.9528 91.4989 45.6723C91.6323 45.3918 91.8396 45.153 92.0986 44.9816L97.8063 41.2347C98.7433 40.6288 99.4461 39.7219 99.799 38.6633C100.152 37.6047 100.134 36.4575 99.7476 35.4106L96.3891 26.9074C96.0299 25.9958 95.4044 25.2137 94.594 24.663C93.7836 24.1124 92.826 23.8188 91.8463 23.8206C91.5752 23.792 91.3019 23.792 91.0309 23.8206L84.2943 24.966C83.9899 25.0186 83.6769 24.9866 83.3894 24.8737C83.1018 24.7607 82.8508 24.5711 82.6636 24.3254C80.9349 22.1297 78.9831 20.1193 76.8395 18.3265C76.601 18.1265 76.421 17.8658 76.3185 17.5719C76.216 17.278 76.1947 16.9619 76.257 16.657L77.6548 9.97864C77.8729 8.8704 77.7024 7.72086 77.172 6.72366C76.6415 5.72647 75.7836 4.94255 74.7428 4.50397L66.3755 0.873612C65.7633 0.605507 65.1024 0.466712 64.4341 0.465924C63.6518 0.465654 62.8807 0.652256 62.1851 1.0102C61.4895 1.36814 60.8894 1.88707 60.4349 2.52378L56.5521 8.09551C56.3657 8.34607 56.1174 8.54396 55.8315 8.66987C55.5457 8.79577 55.2321 8.84537 54.9214 8.81382C52.1575 8.48211 49.3672 8.43008 46.5929 8.65851C46.2836 8.69113 45.9712 8.6377 45.6903 8.5041C45.4094 8.3705 45.1709 8.16193 45.001 7.90137L41.1959 2.19374C40.7528 1.51745 40.1479 0.962545 39.4359 0.579436C38.7239 0.196328 37.9275 -0.00284912 37.119 -5.12486e-06C36.5064 -0.00256931 35.8994 0.116197 35.333 0.349442L26.8297 3.6886C25.7936 4.10633 24.9308 4.86484 24.3837 5.83896C23.8366 6.81307 23.638 7.94459 23.8206 9.04678L24.966 15.7639C25.0164 16.0683 24.9835 16.3806 24.8707 16.6677C24.7579 16.9548 24.5694 17.206 24.3254 17.3947C22.1247 19.1243 20.108 21.076 18.3071 23.2188C18.1058 23.4556 17.8449 23.6344 17.5515 23.7368C17.258 23.8392 16.9425 23.8614 16.6375 23.8012L9.97865 22.4228C9.65207 22.3617 9.32078 22.3292 8.98855 22.3258C8.03909 22.3236 7.10953 22.5978 6.31323 23.1149C5.51692 23.632 4.88829 24.3696 4.50398 25.2378L0.873621 33.6439C0.434022 34.6714 0.35795 35.8181 0.657965 36.8946C0.95798 37.9711 1.61614 38.9131 2.52379 39.5651L8.07611 43.4479C8.32759 43.6325 8.52504 43.8812 8.64794 44.1679C8.77084 44.4547 8.81472 44.7692 8.775 45.0786C8.44833 47.8561 8.4028 50.6594 8.6391 53.4459C8.67173 53.7553 8.61829 54.0676 8.48469 54.3485C8.3511 54.6294 8.14252 54.868 7.88197 55.0379L2.19375 58.8041C1.25938 59.4124 0.55875 60.3195 0.206172 61.3772C-0.146406 62.4349 -0.130117 63.5809 0.252382 64.6282L3.68861 73.1702C4.04316 74.085 4.66763 74.8701 5.47905 75.4215C6.29047 75.9728 7.25043 76.2642 8.23141 76.257C8.50287 76.2761 8.77533 76.2761 9.04679 76.257L15.7445 75.0922C16.0618 75.0275 16.3908 75.0512 16.6955 75.1607C17.0002 75.2703 17.2689 75.4615 17.4723 75.7134C19.2065 77.9101 21.1578 79.9264 23.2965 81.7317C23.5366 81.9304 23.7178 82.191 23.8205 82.4853C23.9231 82.7796 23.9433 83.0963 23.8789 83.4013L22.5005 90.0602C22.2757 91.1422 22.4239 92.2685 22.921 93.2556C23.418 94.2426 24.2347 95.0323 25.2378 95.496L33.6245 99.1458C34.2395 99.4026 34.8995 99.5346 35.5659 99.5341C36.3458 99.5361 37.1147 99.3501 37.8075 98.9919C38.5003 98.6336 39.0965 98.1137 39.5457 97.4762L43.4285 91.9239C43.6131 91.6724 43.8618 91.475 44.1485 91.3521C44.4353 91.2292 44.7498 91.1853 45.0592 91.225C47.8366 91.5518 50.64 91.5973 53.4265 91.3609C53.7356 91.3305 54.0472 91.3849 54.3277 91.5183C54.6082 91.6517 54.847 91.859 55.0184 92.118L58.7459 97.8063C59.1889 98.4826 59.7939 99.0374 60.5059 99.4206C61.2179 99.8037 62.0143 100.003 62.8228 100C63.434 100.009 64.041 99.8966 64.6088 99.67L73.112 96.3114C74.154 95.9 75.0232 95.1435 75.5745 94.1682C76.1257 93.193 76.3255 92.0581 76.1406 90.9532L74.9757 84.2361C74.9253 83.9317 74.9583 83.6194 75.0711 83.3323C75.1839 83.0452 75.3723 82.794 75.6164 82.6053C77.8131 80.8711 79.8294 78.9199 81.6346 76.7812C81.8333 76.5411 82.0939 76.3599 82.3882 76.2572C82.6825 76.1545 82.9993 76.1343 83.3042 76.1988L89.9631 77.5772C90.2985 77.6164 90.6373 77.6164 90.9726 77.5772C91.922 77.5788 92.8511 77.302 93.6447 76.7809C94.4384 76.2599 95.0618 75.5175 95.4378 74.6457L99.0681 66.2784C99.4975 65.2671 99.5739 64.1407 99.2851 63.0807C98.9964 62.0206 98.3592 61.0887 97.4762 60.4349ZM59.0177 72.9373C54.4848 74.7249 49.5237 75.1281 44.7616 74.0961C39.9996 73.064 35.6505 70.643 32.2644 67.1392C28.8783 63.6354 26.6073 59.2062 25.7385 54.4117C24.8697 49.6172 25.4421 44.6727 27.3835 40.2035C29.3248 35.7344 32.5479 31.9413 36.645 29.3039C40.7421 26.6665 45.5293 25.3033 50.4012 25.3866C55.2731 25.47 60.0108 26.9962 64.0153 29.7722C68.0198 32.5482 71.1112 36.4494 72.8985 40.9823C75.2897 47.061 75.171 53.8401 72.5685 59.8313C69.966 65.8225 65.0924 70.5361 59.0177 72.9373Z" fill="url(#paint0_linear_43_822)"/>
<defs>
<linearGradient id="paint0_linear_43_822" x1="-0.046875" y1="-4.57764e-05" x2="105.893" y2="6.62762" gradientUnits="userSpaceOnUse">
<stop stop-color="#FFD600"/>
<stop offset="1" stop-color="#FFBB36"/>
</linearGradient>
</defs>
</svg>
