<svg width="100" height="100" viewBox="0 0 100 100" fill="none" xmlns="http://www.w3.org/2000/svg">
<path d="M85.3575 14.6424C75.9801 5.26492 63.2615 -0.00326548 49.9998 -0.00326538C36.7382 -0.00326528 24.0196 5.26492 14.6422 14.6424C5.26477 24.0198 -0.00341787 36.7383 -0.00341797 50C-0.00341807 63.2617 5.26477 75.9802 14.6422 85.3577C24.0196 94.7351 36.7382 100.003 49.9998 100.003C63.2615 100.003 75.9801 94.7351 85.3575 85.3577C94.7349 75.9802 100.003 63.2617 100.003 50C100.003 36.7383 94.7349 24.0198 85.3575 14.6424ZM76.5048 84.8088C68.9019 90.5984 59.6094 93.7338 50.053 93.7338C40.4966 93.7338 31.2041 90.5984 23.6011 84.8088C23.0102 84.3649 22.573 83.7472 22.3507 83.0424C22.1284 82.3375 22.1323 81.5807 22.3617 80.8782C23.7184 77.0139 25.9075 73.4949 28.7743 70.57C31.641 67.6451 35.1154 65.3858 38.9517 63.9518C39.1935 63.859 39.4061 63.7031 39.5673 63.5004C39.7286 63.2977 39.8327 63.0555 39.8688 62.799C39.905 62.5425 39.8718 62.281 39.7728 62.0416C39.6738 61.8022 39.5126 61.5937 39.3058 61.4377C36.1841 59.1778 33.8586 55.987 32.6631 52.3233C31.4675 48.6596 31.4633 44.7114 32.6511 41.0451C33.8389 37.3789 36.1576 34.1832 39.2744 31.9167C42.3913 29.6501 46.146 28.4292 49.9998 28.4292C53.8537 28.4292 57.6084 29.6501 60.7253 31.9167C63.8421 34.1832 66.1608 37.3789 67.3486 41.0451C68.5364 44.7114 68.5322 48.6596 67.3366 52.3233C66.1411 55.987 63.8156 59.1778 60.6939 61.4377C60.4871 61.5937 60.3259 61.8022 60.2269 62.0416C60.1279 62.281 60.0947 62.5425 60.1309 62.799C60.167 63.0555 60.2711 63.2977 60.4324 63.5004C60.5936 63.7031 60.8062 63.859 61.048 63.9518C64.8791 65.3732 68.3518 67.6176 71.2213 70.5268C74.0908 73.4361 76.2872 76.9394 77.6557 80.7897C77.9095 81.5004 77.9296 82.2737 77.713 82.9967C77.4964 83.7197 77.0545 84.3546 76.4517 84.8088H76.5048Z" fill="url(#paint0_linear_43_842)"/>
<defs>
<linearGradient id="paint0_linear_43_842" x1="-0.00341797" y1="-0.00326538" x2="105.84" y2="6.61195" gradientUnits="userSpaceOnUse">
<stop stop-color="#FFD600"/>
<stop offset="1" stop-color="#FFBB36"/>
</linearGradient>
</defs>
</svg>
