<svg width="100" height="87" viewBox="0 0 100 87" fill="none" xmlns="http://www.w3.org/2000/svg">
<path d="M99.7553 38.3085C99.7553 38.3085 99.7553 38.1687 99.7553 38.0988V38.0114V37.8017C99.7472 37.7672 99.7472 37.7313 99.7553 37.6968C99.7553 37.6968 99.7553 37.5745 99.7553 37.5221C99.7638 37.4817 99.7638 37.4401 99.7553 37.3997C99.7553 37.3997 99.7553 37.3997 99.7553 37.2949V37.0153C99.7553 37.0153 99.7553 37.0153 99.7553 36.9104C99.765 36.8702 99.765 36.8283 99.7553 36.7881C99.7553 36.7881 99.7553 36.6657 99.7553 36.5958C99.7472 36.5614 99.7472 36.5255 99.7553 36.491V36.2987C99.7553 36.2987 99.7553 36.1589 99.7553 36.0715C99.7553 35.9842 99.7553 35.8968 99.633 35.8269C99.4744 35.5226 99.2611 35.2501 99.0038 35.023L87.9937 25.0265C87.7375 24.6468 87.3994 24.3295 87.0042 24.098C86.609 23.8665 86.1668 23.7267 85.7104 23.689C85.2539 23.6512 84.7948 23.7165 84.367 23.8799C83.9391 24.0434 83.5534 24.3009 83.2384 24.6333C82.9233 24.9658 82.687 25.3647 82.5468 25.8008C82.4066 26.2368 82.3661 26.6988 82.4284 27.1525C82.4906 27.6063 82.654 28.0403 82.9064 28.4225C83.1588 28.8046 83.4938 29.1252 83.8867 29.3606L89.1297 34.0268H71.4086V6.9908C71.3628 5.10567 70.5756 3.3146 69.2179 2.00598C67.8603 0.697358 66.0414 -0.0233143 64.1559 0.000239262H5.50507C4.03705 0.0231798 2.63694 0.622495 1.60698 1.66881C0.577014 2.71512 -0.000179192 4.1245 4.17301e-08 5.59269V69.1893C0.0030963 70.3359 0.358506 71.4537 1.01809 72.3915C1.67768 73.3293 2.60956 74.0417 3.68752 74.4323L35.1451 85.7395C35.7492 85.9626 36.3885 86.075 37.0325 86.0715C38.5111 86.0715 39.9291 85.4842 40.9746 84.4387C42.0201 83.3932 42.6075 81.9752 42.6075 80.4966V74.1876H64.1559C66.0414 74.2111 67.8603 73.4905 69.2179 72.1818C70.5756 70.8732 71.3628 69.0822 71.4086 67.197V40.196H89.0073L83.7644 44.8622C83.3041 45.277 82.9806 45.8219 82.8368 46.4247C82.6931 47.0275 82.7359 47.6597 82.9595 48.2377C83.1831 48.8156 83.5769 49.312 84.089 49.6611C84.601 50.0102 85.2069 50.1955 85.8266 50.1925C86.5871 50.1912 87.3207 49.9114 87.8888 49.406L98.899 39.4095C99.1485 39.1752 99.3606 38.9041 99.5281 38.6056C99.5281 38.6056 99.7204 38.4483 99.7553 38.3085ZM65.2919 67.1271C65.261 67.4007 65.1255 67.6516 64.9137 67.8275C64.702 68.0034 64.4304 68.0906 64.1559 68.0708H42.6075V16.8999C42.6019 15.754 42.2455 14.6373 41.5863 13.6999C40.927 12.7626 39.9965 12.0497 38.92 11.657L23.5582 6.11698H64.1559C64.4304 6.09719 64.702 6.18438 64.9137 6.36028C65.1255 6.53618 65.261 6.78717 65.2919 7.06071V67.1271Z" fill="url(#paint0_linear_43_860)"/>
<defs>
<linearGradient id="paint0_linear_43_860" x1="0" y1="-0.000320435" x2="105.444" y2="7.6382" gradientUnits="userSpaceOnUse">
<stop stop-color="#FFD600"/>
<stop offset="1" stop-color="#FFBB36"/>
</linearGradient>
</defs>
</svg>
