<svg width="100" height="96" viewBox="0 0 100 96" fill="none" xmlns="http://www.w3.org/2000/svg">
<path d="M99.7297 36.1105C99.3264 34.8096 98.5391 33.6609 97.4712 32.8155C96.4033 31.9701 95.1047 31.4674 93.7459 31.3734L66.4864 29.3372L56.3264 4.2593C55.8125 3.00333 54.9365 1.92874 53.8098 1.17237C52.6831 0.416005 51.3568 0.0121002 49.9998 0.0121002C48.6428 0.0121002 47.3164 0.416005 46.1898 1.17237C45.0631 1.92874 44.187 3.00333 43.6732 4.2593L33.5547 29.3372L6.23289 31.3734C4.88498 31.4963 3.60391 32.0166 2.55203 32.8684C1.50014 33.7201 0.724792 34.865 0.324246 36.1579C-0.0763004 37.4507 -0.0840145 38.8334 0.302081 40.1307C0.688177 41.4279 1.4507 42.5814 2.49302 43.4448L23.374 60.6482L16.6214 87.2637C16.3668 88.2645 16.3429 89.3102 16.5517 90.3216C16.7605 91.333 17.1964 92.2838 17.8265 93.102C18.4726 93.9242 19.2956 94.5902 20.2344 95.0506C21.1732 95.511 22.2037 95.754 23.2493 95.7615C24.581 95.7731 25.8875 95.3977 27.01 94.6811L50.0102 79.9709L73.0312 94.6811C74.1844 95.4441 75.5419 95.8395 76.9245 95.8149C78.3071 95.7903 79.6498 95.347 80.7752 94.5435C81.9006 93.7399 82.7558 92.614 83.228 91.3142C83.7001 90.0145 83.767 88.6022 83.4197 87.2637L76.6256 60.6482L97.4026 43.4448C98.4911 42.6047 99.2972 41.4522 99.713 40.1416C100.129 38.8309 100.135 37.4246 99.7297 36.1105Z" fill="url(#paint0_linear_43_896)"/>
<defs>
<linearGradient id="paint0_linear_43_896" x1="0.0180664" y1="0.0121002" x2="105.829" y2="6.91574" gradientUnits="userSpaceOnUse">
<stop stop-color="#FFD600"/>
<stop offset="1" stop-color="#FFBB36"/>
</linearGradient>
</defs>
</svg>
