<svg width="151" height="150" viewBox="0 0 151 150" fill="none" xmlns="http://www.w3.org/2000/svg">
<path d="M50.8071 35.3669H94.289C95.7549 35.3669 97.0864 35.9651 98.0501 36.9288C99.0137 37.8925 99.612 39.2238 99.612 40.6899V115.976C99.612 117.442 99.0137 118.773 98.0501 119.737C97.0864 120.7 95.7549 121.299 94.289 121.299H94.15V47.4389C94.15 45.7074 93.4626 44.059 92.2388 42.8352C91.0151 41.6115 89.3667 40.9241 87.6351 40.9241H45.4841V40.69C45.4841 39.2238 46.0823 37.8925 47.046 36.9288C48.0097 35.9651 49.341 35.3669 50.807 35.3669L50.8071 35.3669Z" fill="url(#paint0_linear_30_120)"/>
<path d="M58.3617 27.0584H101.844C103.31 27.0584 104.641 27.6566 105.605 28.6203C106.568 29.584 107.167 30.9153 107.167 32.3814V107.667C107.167 109.133 106.568 110.464 105.605 111.428C104.641 112.392 103.31 112.99 101.844 112.99H100.721V40.6896C100.721 38.9802 100.042 37.3528 98.8341 36.1448C97.626 34.9366 95.9984 34.2581 94.289 34.2581H53.0387V32.3811C53.0387 30.9151 53.637 29.5838 54.6006 28.6201C55.5643 27.6564 56.8958 27.0582 58.3617 27.0582V27.0584Z" fill="url(#paint1_linear_30_120)"/>
<path d="M65.9162 18.7499H109.398C110.864 18.7499 112.196 19.3482 113.159 20.3118C114.123 21.2755 114.721 22.6068 114.721 24.0729V99.3586C114.721 100.825 114.123 102.156 113.159 103.12C112.196 104.083 110.864 104.682 109.398 104.682H108.275V32.3812C108.275 30.6718 107.597 29.0444 106.388 27.8363C105.18 26.6283 103.553 25.9498 101.844 25.9498H60.5933V24.0728C60.5933 22.6067 61.1915 21.2753 62.1551 20.3116C63.1188 19.348 64.4502 18.7498 65.9162 18.7498L65.9162 18.7499Z" fill="url(#paint2_linear_30_120)"/>
<path d="M42.3519 42.0326H87.6351C89.124 42.0326 90.4762 42.6402 91.455 43.619C92.4339 44.5979 93.0415 45.95 93.0415 47.439V125.844C93.0415 127.333 92.4339 128.685 91.455 129.664C90.4762 130.643 89.124 131.25 87.6351 131.25H42.3519C40.8629 131.25 39.5107 130.643 38.5319 129.664C37.5531 128.685 36.9454 127.333 36.9454 125.844V47.439C36.9454 45.9501 37.5531 44.5979 38.5319 43.619C39.5107 42.6402 40.8629 42.0326 42.3519 42.0326ZM71.6212 110.404L76.1964 122.562H80.1519L84.7272 110.404H81.1727L80.5712 112.154H75.7772L75.1757 110.404H71.6212H71.6212ZM76.6339 114.888H79.7145L78.1651 119.464L76.6339 114.888H76.6339ZM64.1621 74.9584C62.6189 73.0149 60.8595 72.3373 58.3845 72.3373C56.336 72.3373 54.3922 73.1438 52.9441 74.592C51.496 76.0401 50.6894 77.9839 50.6894 80.0324C50.6894 83.9189 52.7775 87.5704 55.044 90.5925C57.7436 94.1921 61.0479 97.4494 64.2257 100.627C64.6499 101.051 65.337 101.051 65.7612 100.627C68.939 97.4494 72.2433 94.192 74.9429 90.5925C77.2094 87.5704 79.2975 83.9188 79.2975 80.0324C79.2975 77.9839 78.4909 76.0401 77.0429 74.592C75.5947 73.1439 73.651 72.3373 71.6025 72.3373C69.8654 72.3373 68.3709 72.7317 67.0077 73.8222C66.5808 74.1637 66.1978 74.5531 65.85 74.9745L64.9962 76.0089L64.1621 74.9584H64.1621ZM58.6643 63.0482L54.0891 50.89H50.1336L45.5583 63.0482H49.1128L49.7143 61.2983H54.5083L55.1098 63.0482H58.6643H58.6643ZM53.6516 58.5641H50.571L52.1204 53.9889L53.6516 58.5641Z" fill="url(#paint3_linear_30_120)"/>
<defs>
<linearGradient id="paint0_linear_30_120" x1="45.4841" y1="35.3669" x2="102.906" y2="37.6275" gradientUnits="userSpaceOnUse">
<stop stop-color="#FFD600"/>
<stop offset="1" stop-color="#FFBB36"/>
</linearGradient>
<linearGradient id="paint1_linear_30_120" x1="53.0387" y1="27.0582" x2="110.461" y2="29.3188" gradientUnits="userSpaceOnUse">
<stop stop-color="#FFD600"/>
<stop offset="1" stop-color="#FFBB36"/>
</linearGradient>
<linearGradient id="paint2_linear_30_120" x1="60.5933" y1="18.7498" x2="118.015" y2="21.0104" gradientUnits="userSpaceOnUse">
<stop stop-color="#FFD600"/>
<stop offset="1" stop-color="#FFBB36"/>
</linearGradient>
<linearGradient id="paint3_linear_30_120" x1="36.9454" y1="42.0326" x2="96.4556" y2="44.3712" gradientUnits="userSpaceOnUse">
<stop stop-color="#FFD600"/>
<stop offset="1" stop-color="#FFBB36"/>
</linearGradient>
</defs>
</svg>
