<svg width="151" height="150" viewBox="0 0 151 150" fill="none" xmlns="http://www.w3.org/2000/svg">
<path fill-rule="evenodd" clip-rule="evenodd" d="M55.5787 37.7546C57.7955 39.9715 59.1668 43.034 59.1668 46.4166C59.1668 49.799 57.7955 52.8616 55.5787 55.0785C53.3618 57.2953 50.2992 58.6666 46.9167 58.6666C43.5342 58.6666 40.4717 57.2953 38.2548 55.0785C36.0378 52.8616 34.6667 49.799 34.6667 46.4166C34.6667 43.034 36.0379 39.9715 38.2548 37.7546C40.4717 35.5377 43.5342 34.1665 46.9167 34.1665C50.2992 34.1665 53.3618 35.5377 55.5787 37.7546ZM26.5 31.2318V118.768C26.5 120.209 27.088 121.518 28.0352 122.465C28.9825 123.412 30.291 124 31.7318 124H119.268C120.709 124 122.018 123.412 122.965 122.465C123.912 121.518 124.5 120.209 124.5 118.768V31.2318C124.5 29.791 123.912 28.4825 122.965 27.5352C122.018 26.588 120.709 26 119.268 26H31.7318C30.291 26 28.9825 26.588 28.0352 27.5352C27.088 28.4825 26.5 29.791 26.5 31.2318ZM46.9167 91.3332C50.2992 91.3332 53.3618 92.7046 55.5787 94.9213C57.7955 97.1383 59.1668 100.201 59.1668 103.583C59.1668 106.966 57.7955 110.028 55.5787 112.245C53.3618 114.462 50.2992 115.833 46.9167 115.833C43.5342 115.833 40.4717 114.462 38.2548 112.245C36.0378 110.028 34.6667 106.966 34.6667 103.583C34.6667 100.201 36.0379 97.1383 38.2548 94.9213C40.4717 92.7046 43.5342 91.3332 46.9167 91.3332ZM75.5001 62.7499C78.8826 62.7499 81.9451 64.1211 84.162 66.338C86.379 68.5549 87.7501 71.6174 87.7501 75C87.7501 78.3825 86.3789 81.445 84.162 83.6619C81.9451 85.8789 78.8826 87.25 75.5001 87.25C72.1175 87.25 69.055 85.8789 66.8381 83.6619C64.6212 81.445 63.25 78.3825 63.25 75C63.25 71.6174 64.6212 68.5549 66.8381 66.338C69.055 64.1211 72.1175 62.7499 75.5001 62.7499ZM95.4215 37.7545C97.6384 35.5376 100.701 34.1664 104.083 34.1664C107.466 34.1664 110.528 35.5376 112.745 37.7545C114.962 39.9715 116.334 43.034 116.334 46.4165C116.334 49.799 114.962 52.8615 112.745 55.0785C110.529 57.2952 107.466 58.6666 104.083 58.6666C100.701 58.6666 97.6384 57.2952 95.4215 55.0785C93.2047 52.8615 91.8334 49.799 91.8334 46.4165C91.8334 43.034 93.2047 39.9715 95.4215 37.7545ZM104.083 91.3332C107.466 91.3332 110.528 92.7045 112.745 94.9213C114.962 97.1382 116.334 100.201 116.334 103.583C116.334 106.966 114.962 110.028 112.745 112.245C110.529 114.462 107.466 115.833 104.083 115.833C100.701 115.833 97.6384 114.462 95.4215 112.245C93.2047 110.028 91.8334 106.966 91.8334 103.583C91.8334 100.201 93.2047 97.1382 95.4215 94.9213C97.6384 92.7045 100.701 91.3332 104.083 91.3332Z" fill="url(#paint0_linear_30_130)"/>
<defs>
<linearGradient id="paint0_linear_30_130" x1="26.5" y1="26" x2="130.22" y2="32.4825" gradientUnits="userSpaceOnUse">
<stop stop-color="#FFD600"/>
<stop offset="1" stop-color="#FFBB36"/>
</linearGradient>
</defs>
</svg>
