<svg width="151" height="150" viewBox="0 0 151 150" fill="none" xmlns="http://www.w3.org/2000/svg">
<path fill-rule="evenodd" clip-rule="evenodd" d="M75.4912 22.529C104.495 22.529 128.01 46.0268 128.01 74.9911C128.011 103.973 104.495 127.471 75.4912 127.471C46.5058 127.471 22.99 103.973 22.99 74.9911C22.99 46.0268 46.5057 22.529 75.4912 22.529V22.529ZM75.4912 18.7923C106.56 18.7923 131.75 43.9641 131.75 74.9911C131.75 106.037 106.56 131.208 75.4912 131.208C44.4402 131.208 19.2498 106.037 19.2498 74.9911C19.2498 43.964 44.4403 18.7923 75.4912 18.7923V18.7923Z" fill="url(#paint0_linear_30_92)"/>
<path fill-rule="evenodd" clip-rule="evenodd" d="M111.732 75.3259V75.5674V75.7903L111.714 76.0133V76.2364L111.695 76.4781V76.7009L111.676 76.924V77.1478L111.658 77.3886L111.639 77.6124L111.621 77.8353L111.602 78.0775L111.583 78.3L111.565 78.5229L111.527 78.7653L111.509 78.9882L111.49 79.2111L111.453 79.4527L111.435 79.6758L111.397 79.8989L111.36 80.1404L111.323 80.3633L111.285 80.5871L111.249 80.828L111.211 81.0518L111.174 81.2925L111.137 81.5162L111.1 81.7394L111.044 81.981L111.007 82.204L110.95 82.4269L110.914 82.6499L110.858 82.8916L110.821 83.0588C110.709 83.5241 110.448 83.9329 110.058 84.1932C109.556 84.5468 108.997 84.6205 108.458 84.4721C107.546 84.1932 106.895 83.3011 107.136 82.2412L107.174 82.074L107.211 81.8694L107.267 81.6649L107.304 81.4605L107.342 81.2561L107.379 81.0518L107.416 80.828L107.453 80.6238L107.49 80.4193L107.528 80.2148L107.565 80.0103L107.583 79.8058L107.621 79.6008L107.658 79.3971L107.677 79.1919L107.713 78.9882L107.732 78.7653L107.751 78.5601L107.769 78.3556L107.788 78.1514L107.825 77.9469L107.844 77.7422V77.538L107.863 77.333L107.881 77.1292L107.9 76.924V76.7201L107.918 76.5151V76.3108L107.937 76.1062V75.9019L107.955 75.6975V75.4931V75.2879V75.1586C107.955 74.6939 108.123 74.2294 108.458 73.8941C108.793 73.5037 109.239 73.3179 109.741 73.2809C110.783 73.2623 111.751 74.0243 111.732 75.1765V75.3259V75.3259ZM75.4997 67.3381C77.7021 62.9332 79.9044 60.7309 84.3093 60.7309C89.1721 60.7309 93.1188 64.6776 93.1188 69.5404C93.1188 78.3499 84.3093 87.1595 75.4997 95.9688C66.6902 87.1594 57.8806 78.3498 57.8806 69.5404C57.8806 64.6776 61.8274 60.7309 66.6902 60.7309C71.0948 60.7309 73.2972 62.9332 75.4997 67.3381V67.3381ZM109.481 87.5582L109.426 87.6882L109.351 87.9113L109.277 88.1157L109.184 88.3386L109.109 88.5431L109.016 88.7483L108.923 88.9712L108.848 89.1749L108.756 89.3801L108.662 89.6032L108.569 89.8069L108.476 90.0119L108.365 90.2163L108.271 90.4209L108.179 90.6437L108.086 90.8489L107.974 91.0526L107.863 91.2579L107.769 91.4621L107.658 91.6668L107.546 91.871L107.435 92.0755L107.342 92.2798L107.23 92.485L107.1 92.6887L106.989 92.8939L106.877 93.0976L106.765 93.3028L106.634 93.5072L106.523 93.7116L106.392 93.8967L106.281 94.1017L106.151 94.3064L106.021 94.492L105.928 94.6593C105.667 95.0502 105.277 95.3291 104.83 95.4591C104.235 95.6264 103.695 95.4964 103.23 95.1619C102.467 94.5856 102.17 93.5257 102.747 92.6143L102.84 92.4657L102.951 92.2798L103.062 92.1126L103.175 91.9267L103.286 91.7595L103.397 91.5737L103.491 91.3871L103.602 91.2199L103.714 91.0342L103.807 90.8489L103.919 90.6623L104.011 90.4765L104.105 90.2908L104.216 90.1049L104.31 89.9377L104.402 89.751L104.496 89.566L104.588 89.3801L104.681 89.1943L104.774 89.0076L104.867 88.822L104.941 88.6367L105.034 88.4502L105.109 88.2644L105.202 88.0601L105.277 87.8741L105.37 87.6882L105.443 87.5024L105.518 87.316L105.593 87.1301L105.667 86.9449L105.742 86.7397L105.816 86.5539L105.89 86.368L105.946 86.238C106.114 85.8107 106.43 85.4382 106.839 85.2153C107.304 84.9736 107.788 84.9557 108.271 85.085C109.259 85.4382 109.89 86.461 109.481 87.5582V87.5582ZM103.137 98.4149L103.044 98.5263L102.895 98.6935L102.747 98.8794L102.597 99.0466L102.449 99.2139L102.281 99.3811L102.132 99.5485L101.984 99.7163L101.816 99.8837L101.667 100.051L101.499 100.218L101.351 100.367L101.184 100.534L101.016 100.701L100.849 100.869L100.682 101.017L100.514 101.184L100.347 101.334L100.179 101.501L100.011 101.649L99.8443 101.817L99.677 101.966L99.4902 102.133L99.3229 102.282L99.1373 102.43L98.97 102.579L98.7836 102.728L98.6156 102.876L98.4299 103.025L98.2439 103.174L98.0582 103.323L97.891 103.471L97.7042 103.62L97.5185 103.75L97.3691 103.861C96.9975 104.159 96.5328 104.289 96.0675 104.252C95.4537 104.196 94.9699 103.88 94.6538 103.434C94.1321 102.635 94.2071 101.52 95.0627 100.869L95.2113 100.757L95.3786 100.627L95.5464 100.497L95.7137 100.367L95.8809 100.237L96.0303 100.107L96.1976 99.9763L96.3648 99.8457L96.5137 99.6978L96.6809 99.567L96.8303 99.4368L96.9975 99.2889L97.1467 99.1581L97.3133 99.0102L97.4627 98.8794L97.612 98.7308L97.7602 98.6005L97.9094 98.4519L98.0582 98.3032L98.2067 98.1546L98.356 98.0244L98.5041 97.8758L98.6533 97.7272L98.802 97.5778L98.9322 97.4297L99.0815 97.2805L99.2116 97.1324L99.3605 96.983L99.4902 96.8344L99.639 96.6858L99.7698 96.5369L99.8999 96.3698L100.03 96.2204L100.179 96.0725L100.253 95.9609C100.57 95.608 100.997 95.3656 101.462 95.31C101.965 95.2541 102.43 95.3847 102.839 95.6822C103.639 96.3327 103.899 97.522 103.137 98.4149L103.137 98.4149ZM93.463 106.446L93.3323 106.52L93.128 106.632L92.9228 106.743L92.7371 106.855L92.5326 106.966L92.328 107.06L92.1231 107.171L91.9187 107.282L91.7142 107.375L91.509 107.486L91.3048 107.58L91.1003 107.672L90.8958 107.784L90.6908 107.877L90.4677 107.97L90.2627 108.063L90.058 108.156L89.8352 108.249L89.6302 108.342L89.4069 108.435L89.2026 108.509L88.9789 108.602L88.7559 108.695L88.5509 108.769L88.3278 108.862L88.1042 108.937L87.9003 109.011L87.6768 109.105L87.4536 109.179L87.23 109.253L87.0071 109.328L86.7833 109.401L86.5604 109.476L86.3373 109.55L86.1693 109.606C85.7233 109.736 85.2394 109.717 84.8119 109.514C84.2539 109.253 83.9186 108.807 83.7701 108.268C83.5656 107.338 84.0116 106.315 85.0342 106L85.2208 105.944L85.4069 105.87L85.6119 105.814L85.7976 105.739L86.0023 105.683L86.2073 105.609L86.3932 105.535L86.5976 105.46L86.8024 105.405L86.9883 105.33L87.1929 105.256L87.3794 105.181L87.5839 105.089L87.7704 105.014L87.9561 104.94L88.16 104.865L88.3472 104.773L88.533 104.698L88.7187 104.605L88.9232 104.531L89.1091 104.438L89.295 104.345L89.4815 104.27L89.6672 104.178L89.8532 104.085L90.021 103.991L90.2069 103.899L90.3933 103.806L90.5791 103.713L90.7651 103.62L90.9323 103.527L91.1183 103.434L91.2862 103.323L91.4726 103.229L91.5842 103.174C91.9929 102.932 92.4767 102.858 92.9419 102.969C93.4437 103.081 93.8347 103.36 94.1135 103.769C94.6344 104.661 94.4671 105.87 93.463 106.446V106.446ZM81.6116 110.684L81.4635 110.722L81.2399 110.759L81.017 110.777L80.7932 110.815L80.5703 110.852L80.3465 110.889L80.105 110.907L79.8819 110.945L79.6581 110.963L79.4353 111L79.2114 111.019L78.97 111.037L78.747 111.056L78.5232 111.074L78.2817 111.093L78.0587 111.112L77.8165 111.13L77.5936 111.149H77.3703L77.1282 111.167H76.9045L76.663 111.186H76.4397L76.1982 111.205H75.9746H75.733H75.4915H75.2677H75.0256H74.8023L74.5609 111.186H74.337L74.0956 111.167H73.8727L73.6867 111.149C73.2215 111.13 72.7748 110.945 72.4403 110.61C71.9936 110.183 71.8442 109.643 71.882 109.085C72.0115 108.138 72.7748 107.338 73.8539 107.375L74.04 107.394H74.245L74.4494 107.413H74.6537H74.8775L75.0812 107.431H75.2863H75.4914H75.7138H75.9188L76.1238 107.413H76.3469H76.5513L76.7563 107.394H76.9602L77.1653 107.375H77.3703L77.5936 107.357L77.7979 107.338H78.0029L78.2066 107.319L78.4118 107.301L78.6168 107.282L78.8213 107.264L79.0258 107.245L79.2303 107.208L79.4353 107.189L79.6403 107.171L79.8439 107.133L80.0492 107.115L80.235 107.078L80.4401 107.06L80.6446 107.022L80.849 106.985L80.9791 106.966C81.4443 106.892 81.9281 106.985 82.3192 107.226C82.7465 107.505 83.0073 107.915 83.1375 108.398C83.342 109.42 82.7465 110.498 81.6116 110.684V110.684ZM71.2495 108.993C71.0816 110.015 70.1704 110.833 69.0353 110.628L68.8861 110.591L68.6629 110.554L68.4408 110.517L68.2171 110.461L67.9939 110.424L67.7703 110.368L67.5473 110.331L67.3235 110.275L67.1007 110.219L66.8768 110.163L66.654 110.107L66.4309 110.052L66.2073 109.996L65.9842 109.94L65.7606 109.866L65.5375 109.81L65.3146 109.736L65.0916 109.681L64.8685 109.606L64.6635 109.55L64.4397 109.476L64.2167 109.401L63.9937 109.328L63.7701 109.253L63.547 109.179L63.3242 109.105L63.1011 109.011L62.8959 108.937L62.6729 108.862L62.4492 108.769L62.2263 108.695L62.0218 108.602L61.7987 108.509L61.5937 108.435L61.4079 108.36C60.9798 108.175 60.6259 107.84 60.4216 107.413C60.1792 106.855 60.1984 106.297 60.44 105.795C60.8869 104.94 61.8724 104.457 62.8588 104.865L63.0453 104.94L63.2311 105.014L63.417 105.089L63.622 105.181L63.808 105.256L64.0123 105.33L64.1981 105.405L64.4032 105.46L64.6078 105.535L64.7935 105.609L64.9985 105.683L65.1844 105.739L65.3889 105.814L65.5933 105.87L65.7799 105.944L65.9842 106L66.1887 106.056L66.3938 106.111L66.5797 106.186L66.784 106.241L66.989 106.297L67.1749 106.334L67.3795 106.39L67.5838 106.446L67.7703 106.501L67.9747 106.539L68.1799 106.594L68.3844 106.632L68.57 106.687L68.7745 106.725L68.9795 106.762L69.1847 106.799L69.3706 106.855L69.5743 106.892L69.7051 106.91C70.1704 106.985 70.5791 107.245 70.8772 107.617C71.1938 108.026 71.3053 108.491 71.2495 108.993V108.993ZM59.864 105.497C59.3615 106.409 58.2265 106.855 57.2216 106.259L57.0916 106.186L56.9057 106.074L56.7007 105.962L56.5148 105.832L56.3097 105.721L56.1239 105.591L55.9381 105.479L55.7336 105.349L55.5472 105.219L55.3608 105.088L55.1748 104.977L54.971 104.848L54.7845 104.698L54.5987 104.568L54.4129 104.438L54.2265 104.308L54.0404 104.178L53.854 104.029L53.6682 103.899L53.4816 103.75L53.2958 103.62L53.11 103.471L52.9427 103.323L52.7569 103.174L52.5703 103.025L52.3844 102.876L52.2172 102.728L52.0313 102.579L51.8633 102.43L51.6777 102.282L51.5104 102.133L51.324 101.966L51.1567 101.817L50.9895 101.649L50.8406 101.538C50.5056 101.222 50.2823 100.776 50.2446 100.311C50.189 99.6978 50.4118 99.1774 50.8027 98.7864C51.5104 98.136 52.6075 98.0244 53.408 98.7494L53.5379 98.8794L53.6868 99.0102L53.854 99.1581L54.0032 99.2889L54.1705 99.4368L54.3193 99.567L54.4866 99.6978L54.6357 99.8457L54.8031 99.9763L54.971 100.107L55.119 100.237L55.287 100.367L55.4542 100.497L55.6214 100.627L55.7895 100.757L55.9567 100.887L56.1239 100.999L56.2917 101.129L56.459 101.259L56.6263 101.37L56.7943 101.482L56.9616 101.612L57.1288 101.723L57.2963 101.835L57.4635 101.966L57.6308 102.077L57.7985 102.189L57.9849 102.3L58.1522 102.412L58.3189 102.523L58.5054 102.616L58.6734 102.728L58.8406 102.839L59.0265 102.932L59.1379 103.006C59.5287 103.248 59.8447 103.62 59.9934 104.066C60.1428 104.568 60.0871 105.033 59.864 105.497L59.864 105.497ZM47.6217 98.136L47.5292 98.0244L47.38 97.8385L47.25 97.6712L47.1006 97.4855L46.9526 97.2989L46.8218 97.1324L46.6732 96.946L46.5424 96.7602L46.4121 96.5743L46.2637 96.3883L46.1335 96.2204L46.0034 96.0167L45.8734 95.8308L45.7426 95.6444L45.6126 95.4591L45.4825 95.2735L45.3517 95.0683L45.2215 94.8824L45.092 94.6971L44.98 94.492L44.8499 94.3064L44.7191 94.1017L44.6075 93.8967L44.4777 93.7116L44.3661 93.5072L44.236 93.3028L44.1244 93.0976L44.013 92.8939L43.9008 92.6887L43.7713 92.485L43.6592 92.2798L43.5477 92.0756L43.4547 91.8711L43.3426 91.6668L43.2496 91.4988C43.0453 91.0898 42.9893 90.6067 43.1009 90.1606C43.2689 89.566 43.6405 89.157 44.1611 88.9156C45.0357 88.5431 46.1149 88.8039 46.6174 89.7704L46.6916 89.9377L46.7846 90.1049L46.8967 90.2908L46.9891 90.4765L47.0827 90.6623L47.1942 90.8489L47.2864 91.0342L47.3986 91.2199L47.51 91.3872L47.6031 91.5737L47.7153 91.7595L47.8267 91.9267L47.9381 92.1126L48.0497 92.2798L48.1612 92.4657L48.2733 92.6329L48.385 92.819L48.4963 92.9862L48.6078 93.1534L48.738 93.3207L48.8494 93.488L48.9616 93.6744L49.0918 93.8411L49.2032 94.0084L49.3147 94.1762L49.4449 94.3248L49.5757 94.4921L49.6871 94.6593L49.8172 94.8266L49.9472 94.9754L50.0588 95.1427L50.1889 95.31L50.3196 95.4591L50.4497 95.6264L50.5426 95.7192C50.8406 96.0911 50.9893 96.5369 50.9709 97.0208C50.9521 97.522 50.7284 97.9687 50.3754 98.3032C49.5757 98.9908 48.3655 99.028 47.6217 98.136H47.6217ZM41.3899 87.2237L41.334 87.0743L41.2591 86.8514L41.1846 86.6476L41.1104 86.424L41.0546 86.2008L40.9796 85.9965L40.9054 85.7737L40.8496 85.5498L40.7754 85.3461L40.7194 85.123L40.6459 84.8999L40.5896 84.6763L40.5337 84.4533L40.4588 84.2302L40.4029 84.0073L40.3471 83.7843L40.2915 83.5612L40.2357 83.3377L40.1992 83.1145L40.1434 82.8916L40.087 82.6499L40.0498 82.4269L39.9941 82.204L39.9569 81.9809L39.9004 81.7394L39.8639 81.5161L39.8269 81.2925L39.7897 81.0518L39.7339 80.828L39.6967 80.5871L39.6781 80.3633L39.6411 80.1403L39.6033 79.8989L39.5666 79.6758L39.5473 79.4894C39.4917 79.0247 39.6031 78.5601 39.8639 78.1698C40.2171 77.668 40.7194 77.4078 41.2777 77.3708C42.2455 77.3151 43.1566 77.9283 43.3053 79.0068L43.3246 79.1919L43.3426 79.3971L43.3803 79.6008L43.4169 79.8058L43.4362 80.0103L43.4727 80.2148L43.5106 80.4192L43.5477 80.6237L43.5848 80.828L43.6219 81.0518L43.6592 81.2561L43.6963 81.4605L43.7335 81.6649L43.7891 81.8694L43.8271 82.0739L43.8827 82.2596L43.9194 82.4641L43.975 82.6688L44.013 82.873L44.0688 83.078L44.1244 83.2638L44.1802 83.4682L44.236 83.6728L44.2916 83.8773L44.3474 84.063L44.4033 84.2674L44.4594 84.4533L44.5155 84.6585L44.5711 84.8443L44.6455 85.048L44.7011 85.2345L44.7755 85.4382L44.8313 85.6248L44.9055 85.8107L44.9428 85.9409C45.1101 86.3866 45.092 86.8706 44.9242 87.2974C44.7191 87.7812 44.3661 88.1157 43.9194 88.3202C42.9337 88.6925 41.7801 88.3016 41.3899 87.2237V87.2237ZM39.2686 74.6753V74.4331V74.21L39.2872 73.987V73.7641V73.5226L39.3058 73.2993L39.3244 73.0757V72.8526L39.3428 72.6112L39.3616 72.3883L39.38 72.165L39.3986 71.9235L39.4172 71.7004L39.4361 71.4776L39.4731 71.2359L39.4917 71.0128L39.5108 70.79L39.5473 70.5483L39.5666 70.3254L39.6033 70.1018L39.6411 69.8606L39.6781 69.637L39.6967 69.3946L39.7339 69.1725L39.7897 68.9494L39.8269 68.7071L39.8639 68.4841L39.9005 68.261L39.9569 68.0196L39.9941 67.7967L40.0498 67.5734L40.087 67.3505L40.1434 67.1089L40.1799 66.923C40.2915 66.4771 40.5521 66.0681 40.9432 65.8073C41.4455 65.4541 42.0031 65.3799 42.5428 65.5286C43.4547 65.8073 44.105 66.7001 43.8636 67.76L43.8271 67.9273L43.7891 68.1312L43.7335 68.3362L43.6963 68.5399L43.6593 68.7449L43.6219 68.9494L43.5849 69.1539L43.5477 69.3768L43.5106 69.5812L43.4727 69.7857L43.4362 69.9901L43.4169 70.1951L43.3804 70.3989L43.3426 70.6041L43.3246 70.8078L43.2868 71.0128L43.2689 71.2359L43.2496 71.4404L43.231 71.6448L43.1939 71.8491L43.1753 72.0537L43.1566 72.2581V72.4631L43.1381 72.6668L43.1195 72.872L43.1009 73.0757V73.2809L43.0823 73.4852V73.6898L43.0637 73.8941V74.0986L43.0453 74.3028V74.5081V74.7117V74.842C43.0453 75.3073 42.8779 75.7717 42.5428 76.1062C42.2083 76.4972 41.7616 76.6831 41.2591 76.7203C40.2171 76.7388 39.25 75.9763 39.2684 74.8234L39.2686 74.6753H39.2686ZM41.5199 62.4428L41.5571 62.3128L41.6494 62.0899L41.7244 61.8847L41.8173 61.6616L41.8917 61.4574L41.9845 61.2529L42.0783 61.0298L42.1518 60.8248L42.2455 60.6211L42.3376 60.398L42.4312 60.1928L42.5242 59.9891L42.617 59.7841L42.7287 59.561L42.822 59.3566L42.9151 59.1522L43.0259 58.9476L43.1195 58.7433L43.2309 58.5389L43.3426 58.3339L43.4547 58.13L43.5477 57.925L43.6592 57.7212L43.7713 57.5162L43.9008 57.3115L44.013 57.1072L44.1244 56.9028L44.236 56.6985L44.3661 56.4939L44.4777 56.2889L44.6075 56.103L44.7191 55.8987L44.8499 55.6942L44.98 55.5089L45.0728 55.3409C45.3337 54.9508 45.724 54.6719 46.1707 54.5419C46.766 54.3746 47.3056 54.5047 47.7709 54.8392C48.5336 55.4153 48.8315 56.4753 48.254 57.3859L48.1612 57.5348L48.0497 57.7212L47.9381 57.8884L47.8267 58.0743L47.7153 58.2416L47.6031 58.4272L47.51 58.6125L47.3986 58.7803L47.2864 58.9664L47.1942 59.1522L47.0827 59.3381L46.9891 59.5238L46.8967 59.7104L46.7846 59.8777L46.6916 60.0628L46.5982 60.2486L46.5059 60.4345L46.4121 60.6211L46.3193 60.8069L46.2263 60.9926L46.1335 61.1785L46.059 61.3644L45.9662 61.5502L45.8918 61.7361L45.7984 61.9405L45.724 62.1264L45.6312 62.3128L45.5568 62.4986L45.4825 62.6845L45.4074 62.8696L45.3337 63.0563L45.2401 63.2607L45.1844 63.4463L45.11 63.6322L45.0542 63.7624C44.8869 64.1905 44.5711 64.5615 44.1611 64.7852C43.6963 65.0263 43.2123 65.0454 42.7287 64.9146C41.743 64.5615 41.1104 63.5394 41.5199 62.4428H41.5199ZM47.8637 51.5856L47.9567 51.4742L48.1053 51.3076L48.2542 51.1212L48.4034 50.954L48.5522 50.7867L48.72 50.6185L48.8682 50.4513L49.0175 50.284L49.1848 50.1176L49.3333 49.9503L49.5005 49.783L49.6499 49.6157L49.8172 49.4663L49.9844 49.2991L50.1524 49.1318L50.3196 48.9832L50.4869 48.816L50.6549 48.6673L50.8222 48.5001L50.9895 48.3508L51.1567 48.1836L51.324 48.0355L51.5104 47.8682L51.6776 47.7188L51.8633 47.571L52.0313 47.4216L52.2172 47.2729L52.3844 47.1243L52.5703 46.9754L52.7569 46.8268L52.9427 46.6781L53.11 46.5293L53.2958 46.3808L53.4815 46.25L53.6309 46.1386C54.0032 45.8411 54.4685 45.7116 54.933 45.749C55.5472 45.8041 56.0309 46.1205 56.3475 46.5666C56.85 47.3657 56.7941 48.4815 55.9381 49.1318L55.7895 49.2435L55.6214 49.3735L55.4542 49.5043L55.2869 49.6336L55.1189 49.7637L54.971 49.8945L54.803 50.0247L54.6357 50.1542L54.4866 50.3034L54.3193 50.4334L54.1705 50.5629L54.0032 50.7123L53.854 50.8424L53.6867 50.991L53.5379 51.1212L53.3892 51.2697L53.24 51.3998L53.0921 51.5486L52.9427 51.6973L52.7933 51.8459L52.6453 51.9759L52.4961 52.1253L52.3474 52.2742L52.1986 52.4228L52.0685 52.5712L51.9192 52.7193L51.7892 52.8686L51.6404 53.0174L51.5104 53.1661L51.361 53.3147L51.2309 53.4641L51.1007 53.6306L50.9521 53.7795L50.8222 53.9287L50.7471 54.0401C50.4311 54.3934 50.003 54.6348 49.5377 54.6906C49.0355 54.7464 48.5707 54.6163 48.1612 54.319C47.3614 53.6678 47.1006 52.4784 47.8637 51.5856V51.5856ZM57.5383 43.5554L57.6685 43.4811L57.8727 43.3695L58.0772 43.2579L58.2636 43.1466L58.4683 43.0343L58.6733 42.9414L58.8771 42.83L59.0822 42.7183L59.2865 42.6255L59.491 42.5133L59.696 42.421L59.9007 42.3282L60.1057 42.2166L60.3099 42.1238L60.5331 42.0307L60.7382 41.9372L60.9425 41.8449L61.1661 41.7521L61.37 41.6585L61.5936 41.5662L61.7986 41.4912L62.0217 41.3989L62.2262 41.3052L62.4491 41.2309L62.6729 41.1379L62.8958 41.0636L63.101 40.9902L63.3241 40.8964L63.5469 40.8222L63.77 40.7478L63.9937 40.6735L64.2167 40.5991L64.4396 40.5249L64.6634 40.4505L64.8307 40.3947C65.2773 40.2646 65.7606 40.2832 66.1886 40.4877C66.7475 40.7478 67.082 41.1939 67.2307 41.7335C67.4357 42.6627 66.989 43.6849 65.9656 44.0013L65.7798 44.0571L65.5933 44.1316L65.3888 44.1872L65.1843 44.261L64.9984 44.3174L64.7934 44.3916L64.6078 44.466L64.4031 44.5217L64.1981 44.5961L64.0123 44.6704L63.8079 44.7448L63.6219 44.8192L63.4169 44.912L63.231 44.9865L63.0452 45.0607L62.8402 45.1357L62.6543 45.2281L62.4677 45.3029L62.2819 45.3952L62.0775 45.4701L61.8909 45.5624L61.7053 45.6374L61.5194 45.7297L61.3334 45.8232L61.147 45.9155L60.9797 46.0091L60.7939 46.1021L60.608 46.1943L60.4215 46.2879L60.2357 46.3809L60.0679 46.4737L59.8818 46.5667L59.7146 46.6782L59.5287 46.7712L59.4173 46.8268C59.0079 47.0685 58.5239 47.1427 58.0586 47.0315C57.5561 46.9198 57.166 46.6409 56.8865 46.2321C56.3656 45.3394 56.5334 44.1316 57.5383 43.5554V43.5554ZM69.3884 39.3161L69.5377 39.2789L69.7607 39.2425L69.9845 39.2233L70.2073 39.1869L70.4309 39.1489L70.6535 39.1117L70.8957 39.0931L71.1195 39.0566L71.3424 39.0375L71.5653 39.0008L71.7886 38.9816L72.0306 38.963L72.2544 38.9452L72.4772 38.9258L72.7189 38.9072L72.9426 38.8894L73.1843 38.8702L73.4074 38.8514H73.631L73.8726 38.8336H74.0955L74.337 38.8144H74.5608L74.8023 38.7958H75.0256H75.2676H75.4914H75.7329H75.9745H76.1982L76.4397 38.8144H76.663L76.9044 38.8336H77.1282L77.3146 38.8514C77.7792 38.8702 78.2257 39.0566 78.561 39.3906C79.0071 39.8185 79.1557 40.3569 79.1185 40.915C78.9885 41.8635 78.2257 42.6627 77.1466 42.6255L76.9602 42.6067H76.7563L76.5513 42.5883H76.3469H76.1238L75.9187 42.5689H75.7137H75.4914H75.2862H75.0812L74.8775 42.5883H74.6537H74.4493L74.2449 42.6067H74.0399L73.8347 42.6255H73.631L73.4074 42.6441L73.2021 42.6627H72.9984L72.7933 42.6811L72.5889 42.6997L72.3837 42.7183L72.1792 42.7369L71.975 42.7555L71.77 42.7927L71.5653 42.8114L71.361 42.83L71.156 42.867L70.9515 42.8856L70.7649 42.9228L70.5612 42.9414L70.3562 42.9786L70.1517 43.0157L70.0209 43.0343C69.5564 43.1087 69.0724 43.0158 68.6821 42.774C68.2535 42.4955 67.9746 42.0866 67.8632 41.6027C67.6587 40.5805 68.2355 39.5018 69.3883 39.3161L69.3884 39.3161ZM79.7518 41.008C79.9184 39.9857 80.8301 39.1673 81.9645 39.3719L82.1139 39.4097L82.3377 39.4462L82.5605 39.4834L82.7836 39.5392L83.0074 39.5769L83.2304 39.6326L83.4541 39.6691L83.677 39.725L83.9001 39.7807L84.1232 39.8363L84.346 39.8923L84.5696 39.948L84.7927 40.0038L85.0164 40.0602L85.2396 40.1344L85.4631 40.1904L85.6861 40.2646L85.9094 40.3202L86.1328 40.3947L86.3372 40.4505L86.5603 40.5249L86.7833 40.5991L87.0071 40.6735L87.2299 40.7478L87.4535 40.8222L87.6768 40.8964L87.9002 40.9902L88.1041 41.0636L88.3278 41.1379L88.5509 41.2309L88.7559 41.3052L88.9789 41.3989L89.2026 41.4912L89.4068 41.5662L89.5934 41.6399C90.0209 41.8257 90.3739 42.1602 90.5789 42.5883C90.8208 43.1466 90.8022 43.7033 90.5603 44.205C90.114 45.0607 89.1276 45.5438 88.1418 45.1357L87.956 45.0607L87.7704 44.9864L87.5838 44.912L87.3793 44.8191L87.1929 44.7447L86.9883 44.6704L86.8024 44.5961L86.5975 44.5216L86.3931 44.466L86.2072 44.3916L86.0022 44.3174L85.7975 44.261L85.6119 44.1872L85.4069 44.1316L85.2208 44.0571L85.0164 44.0013L84.812 43.9457L84.607 43.8705L84.4212 43.8149L84.2165 43.7593L84.0115 43.7033L83.8257 43.6477L83.6214 43.6112L83.4162 43.5554L83.2303 43.4996L83.0258 43.4618L82.8216 43.406L82.6163 43.3695L82.4305 43.3138L82.2255 43.276L82.021 43.2388L81.8167 43.1829L81.6307 43.1466L81.4256 43.1086L81.2956 43.0907C80.8303 42.9972 80.4209 42.7555 80.1234 42.3838C79.8069 41.9751 79.6959 41.5105 79.7518 41.008V41.008ZM91.1374 44.503C91.6397 43.5918 92.7746 43.1466 93.7789 43.7226L93.9097 43.8149L94.0956 43.9265L94.2993 44.0378L94.4861 44.1685L94.6903 44.2802L94.8767 44.4102L95.0626 44.5216L95.2669 44.6519L95.4536 44.7819L95.6394 44.912L95.8254 45.0235L96.0302 45.1537L96.2161 45.3029L96.4019 45.4324L96.5887 45.5624L96.7744 45.693L96.9602 45.8232L97.1467 45.9713L97.3326 46.1021L97.5184 46.25L97.7041 46.3808L97.8909 46.5293L98.0581 46.6782L98.2438 46.8268L98.4298 46.9754L98.6155 47.1243L98.7835 47.2729L98.97 47.4216L99.1372 47.571L99.3228 47.7188L99.4901 47.8682L99.6769 48.0355L99.8442 48.1836L100.011 48.3509L100.161 48.4621C100.495 48.7788 100.718 49.2249 100.755 49.6895C100.811 50.3034 100.588 50.8237 100.197 51.2141C99.4901 51.8645 98.3924 51.9762 97.5926 51.2519L97.4626 51.1212L97.3132 50.991L97.1467 50.8424L96.9974 50.7123L96.8302 50.5629L96.6808 50.4334L96.5136 50.3034L96.3647 50.1542L96.1975 50.0247L96.0302 49.8945L95.8808 49.7637L95.7136 49.6337L95.5463 49.5043L95.3786 49.3735L95.2112 49.2435L95.0446 49.1132L94.8767 49.0018L94.7095 48.8718L94.5422 48.7418L94.3742 48.6301L94.207 48.5001L94.0397 48.3887L93.872 48.277L93.7047 48.1654L93.5374 48.0355L93.3694 47.9239L93.2021 47.8124L93.0163 47.701L92.849 47.5888L92.681 47.4772L92.4952 47.3843L92.3279 47.2729L92.1607 47.1613L91.975 47.0685L91.8627 46.994C91.4725 46.7526 91.1558 46.3808 91.0072 45.9349C90.858 45.4324 90.9144 44.9678 91.1374 44.5031V44.503ZM103.378 51.8645L103.472 51.9759L103.621 52.1626L103.751 52.3298L103.899 52.5156L104.049 52.6829L104.179 52.8686L104.31 53.0545L104.458 53.2404L104.588 53.4263L104.737 53.6122L104.867 53.7795L104.998 53.9843L105.127 54.1701L105.258 54.3553L105.388 54.5419L105.518 54.7279L105.648 54.9316L105.778 55.1181L105.909 55.3039L106.021 55.5089L106.151 55.6942L106.281 55.8987L106.392 56.1029L106.523 56.2888L106.634 56.4939L106.765 56.6985L106.877 56.9028L106.989 57.1072L107.1 57.3115L107.23 57.5162L107.342 57.7212L107.434 57.9249L107.546 58.13L107.657 58.3339L107.751 58.5011C107.955 58.9106 108.011 59.3937 107.9 59.8399C107.732 60.4345 107.36 60.8439 106.839 61.0856C105.965 61.4574 104.886 61.1971 104.383 60.2308L104.31 60.0628L104.216 59.8777L104.105 59.7104L104.011 59.5238L103.919 59.3381L103.807 59.1522L103.714 58.9664L103.602 58.7803L103.491 58.6125L103.397 58.4272L103.286 58.2416L103.175 58.0743L103.062 57.8884L102.951 57.7212L102.84 57.5348L102.728 57.3675L102.616 57.1817L102.504 57.0144L102.393 56.8472L102.263 56.6799L102.151 56.4939L102.04 56.3266L101.909 56.1586L101.798 55.9914L101.667 55.8241L101.556 55.6762L101.426 55.5089L101.314 55.3409L101.184 55.1737L101.053 55.0064L100.941 54.8578L100.811 54.6906L100.682 54.5419L100.551 54.3746L100.458 54.2818C100.161 53.9095 100.011 53.4641 100.03 52.9802C100.049 52.4598 100.271 52.0318 100.625 51.6973C101.426 51.0096 102.634 50.9726 103.378 51.8645V51.8645ZM109.612 62.7773L109.667 62.9254L109.741 63.1491L109.816 63.3535L109.89 63.5766L109.947 63.7994L110.02 64.0039L110.095 64.227L110.15 64.4499L110.225 64.655L110.281 64.8782L110.356 65.101L110.411 65.3241L110.467 65.5472L110.541 65.7708L110.597 65.9933L110.653 66.2161L110.709 66.4391L110.764 66.6624L110.802 66.8852L110.858 67.1088L110.914 67.3505L110.95 67.5733L111.007 67.7966L111.044 68.0196L111.1 68.261L111.137 68.4841L111.174 68.7071L111.211 68.9493L111.249 69.1724L111.285 69.3946L111.323 69.637L111.36 69.8606L111.397 70.1018L111.435 70.3254L111.453 70.5105C111.509 70.975 111.397 71.4404 111.137 71.8304C110.783 72.3322 110.281 72.5932 109.723 72.6297C108.756 72.6854 107.844 72.0729 107.695 70.9943L107.677 70.8077L107.657 70.604L107.621 70.3988L107.583 70.1951L107.565 69.9901L107.527 69.7857L107.49 69.5812L107.453 69.3767L107.416 69.1538L107.379 68.9493L107.342 68.7449L107.304 68.5399L107.267 68.3362L107.211 68.1311L107.174 67.9272L107.119 67.7407L107.081 67.5363L107.025 67.3319L106.989 67.1267L106.933 66.923L106.877 66.718L106.82 66.5328L106.765 66.3278L106.709 66.1239L106.653 65.9373L106.597 65.733L106.542 65.5472L106.486 65.3427L106.411 65.1569L106.356 64.9524L106.3 64.7665L106.225 64.5614L106.169 64.3764L106.095 64.1905L106.058 64.0597C105.89 63.6144 105.909 63.1305 106.076 62.7023C106.281 62.2197 106.634 61.8847 107.081 61.6802C108.067 61.3085 109.22 61.6988 109.612 62.7773V62.7773ZM121.09 83.3377C118.951 81.2005 117.63 78.2441 117.63 74.9914C117.63 71.7563 118.951 68.8008 121.09 66.6624C123.248 64.5251 126.187 63.1863 129.443 63.1863H130.503C129.053 56.4197 126.392 50.1175 122.746 44.4846L122.002 45.2281C119.695 47.533 116.681 48.6859 113.648 48.6859C110.616 48.6859 107.583 47.5332 105.295 45.2281C102.988 42.9414 101.835 39.9115 101.835 36.8808C101.835 33.8511 102.988 30.8398 105.295 28.5339L106.039 27.7907C100.402 24.1468 94.0957 21.4886 87.3236 20.0382V21.0983C87.3236 24.3513 85.9835 27.2889 83.8443 29.4454C81.7052 31.583 78.747 32.9027 75.4914 32.9027C72.2545 32.9027 69.2961 31.5833 67.1563 29.4454C65.0165 27.2889 63.6777 24.3513 63.6777 21.0983V20.0382C56.9057 21.4884 50.599 24.1468 44.9614 27.7907L45.7062 28.5339C48.0125 30.8398 49.1653 33.8511 49.1653 36.8808C49.1653 39.9115 48.0124 42.9415 45.706 45.2281C43.4169 47.533 40.3849 48.6859 37.3525 48.6859C34.32 48.6859 31.3059 47.5332 28.9995 45.2281L28.255 44.4846C24.6083 50.1176 21.9482 56.4197 20.4964 63.1863H21.5571C24.8127 63.1863 27.7524 64.5251 29.9106 66.6624C32.05 68.8008 33.3713 71.7563 33.3713 74.9914C33.3713 78.2441 32.0499 81.2005 29.9106 83.3377C27.7524 85.4762 24.8125 86.815 21.5571 86.815H20.4964C21.9482 93.5814 24.6083 99.8837 28.2548 105.516L28.9995 104.773C31.3058 102.467 34.3198 101.315 37.3525 101.315C40.3849 101.315 43.4168 102.467 45.706 104.773C48.0125 107.06 49.1653 110.09 49.1653 113.12C49.1653 116.15 48.0123 119.162 45.706 121.467L44.9614 122.21C50.5989 125.854 56.9056 128.513 63.6777 129.962V128.903C63.6777 125.649 65.0165 122.712 67.1562 120.556C69.296 118.418 72.2544 117.098 75.4914 117.098C78.747 117.098 81.7052 118.418 83.8443 120.556C85.9836 122.712 87.3235 125.649 87.3235 128.903V129.962C94.0956 128.513 100.402 125.854 106.039 122.21L105.295 121.467C102.988 119.162 101.834 116.15 101.834 113.12C101.835 110.09 102.988 107.06 105.295 104.773C107.583 102.467 110.616 101.315 113.648 101.315C116.681 101.315 119.695 102.467 122.002 104.773L122.746 105.516C126.392 99.8837 129.053 93.5814 130.503 86.815H129.443C126.187 86.815 123.248 85.4762 121.09 83.3377H121.09Z" fill="url(#paint1_linear_30_92)"/>
<defs>
<linearGradient id="paint0_linear_30_92" x1="19.2498" y1="18.7923" x2="138.315" y2="26.2394" gradientUnits="userSpaceOnUse">
<stop stop-color="#FFD600"/>
<stop offset="1" stop-color="#FFBB36"/>
</linearGradient>
<linearGradient id="paint1_linear_30_92" x1="20.4964" y1="20.0382" x2="136.923" y2="27.3204" gradientUnits="userSpaceOnUse">
<stop stop-color="#FFD600"/>
<stop offset="1" stop-color="#FFBB36"/>
</linearGradient>
</defs>
</svg>
