<svg width="150" height="150" viewBox="0 0 150 150" fill="none" xmlns="http://www.w3.org/2000/svg">
<path d="M147.656 56.25C147.035 56.25 146.439 56.4969 145.999 56.9365C145.559 57.376 145.312 57.9721 145.312 58.5938V138.281C145.31 140.145 144.569 141.933 143.251 143.251C141.933 144.569 140.145 145.31 138.281 145.312H11.7188C9.85458 145.31 8.06734 144.569 6.74917 143.251C5.43099 141.933 4.68955 140.145 4.6875 138.281V11.7188C4.68955 9.85458 5.43099 8.06734 6.74917 6.74917C8.06734 5.43099 9.85458 4.68955 11.7188 4.6875H91.4062C92.0279 4.6875 92.624 4.44057 93.0635 4.00103C93.5031 3.56149 93.75 2.96535 93.75 2.34375C93.75 1.72215 93.5031 1.12601 93.0635 0.686468C92.624 0.24693 92.0279 0 91.4062 0L11.7188 0C8.61187 0.00365965 5.63328 1.23949 3.43638 3.43638C1.23949 5.63328 0.00365965 8.61187 0 11.7188L0 138.281C0.00365965 141.388 1.23949 144.367 3.43638 146.564C5.63328 148.761 8.61187 149.996 11.7188 150H138.281C141.388 149.996 144.367 148.761 146.564 146.564C148.761 144.367 149.996 141.388 150 138.281V58.5938C150 57.9721 149.753 57.376 149.314 56.9365C148.874 56.4969 148.278 56.25 147.656 56.25Z" fill="url(#paint0_linear_32_750)"/>
<path d="M21.1407 97.9774L14.1094 133.134C14.0337 133.512 14.0526 133.903 14.1644 134.273C14.2762 134.642 14.4774 134.978 14.7503 135.251C15.0232 135.524 15.3592 135.725 15.7286 135.837C16.0979 135.949 16.4891 135.968 16.8675 135.892L52.0238 128.861C52.4695 128.749 52.8806 128.528 53.2207 128.22L143.488 37.9509C147.658 33.7818 150 28.1273 150 22.2313C150 16.3353 147.658 10.6808 143.488 6.51164C141.424 4.44731 138.973 2.80979 136.276 1.69258C133.579 0.575371 130.688 0.000350952 127.769 0.000350952C121.873 0.000350952 116.218 2.34253 112.049 6.51164L21.7805 96.7805C21.471 97.12 21.2511 97.5314 21.1407 97.9774ZM24.8785 103.192L46.8097 125.123L19.3943 130.606L24.8785 103.192ZM99.6094 25.5799L110.358 36.3281L37.5 109.186L26.7523 98.4375L99.6094 25.5799ZM106.641 18.5487L131.451 43.3594L127.734 47.0763L102.924 22.2656L106.641 18.5487ZM51.5625 123.248L40.8143 112.5L113.672 39.6424L124.42 50.3906L51.5625 123.248ZM115.363 9.82594C118.657 6.55322 123.114 4.71968 127.757 4.7271C132.4 4.73453 136.851 6.58233 140.134 9.86557C143.418 13.1488 145.266 17.5997 145.273 22.2429C145.28 26.8861 143.447 31.3429 140.174 34.6366L134.766 40.0451L109.955 15.2344L115.363 9.82594Z" fill="url(#paint1_linear_32_750)"/>
<defs>
<linearGradient id="paint0_linear_32_750" x1="0" y1="0" x2="158.755" y2="9.92218" gradientUnits="userSpaceOnUse">
<stop stop-color="#FFD600"/>
<stop offset="1" stop-color="#FFBB36"/>
</linearGradient>
<linearGradient id="paint1_linear_32_750" x1="14.0638" y1="0.000350952" x2="157.934" y2="8.99214" gradientUnits="userSpaceOnUse">
<stop stop-color="#FFD600"/>
<stop offset="1" stop-color="#FFBB36"/>
</linearGradient>
</defs>
</svg>
