<svg width="128" height="128" viewBox="0 0 128 128" fill="none" xmlns="http://www.w3.org/2000/svg">
<path d="M64 2C51.7376 2 39.7505 5.63624 29.5547 12.4489C19.3588 19.2615 11.4121 28.9446 6.7195 40.2736C2.02686 51.6026 0.799057 64.0688 3.19134 76.0956C5.58362 88.1224 11.4886 99.1698 20.1594 107.841C28.8303 116.511 39.8776 122.416 51.9044 124.809C63.9312 127.201 76.3974 125.973 87.7264 121.281C99.0554 116.588 108.739 108.641 115.551 98.4454C122.364 88.2495 126 76.2624 126 64C125.981 47.5623 119.443 31.8032 107.82 20.18C96.1968 8.55681 80.4377 2.01869 64 2ZM64 122C52.5287 122 41.315 118.598 31.777 112.225C22.2389 105.852 14.8049 96.7938 10.415 86.1956C6.02513 75.5975 4.87654 63.9357 7.11448 52.6848C9.35242 41.4339 14.8764 31.0993 22.9878 22.9878C31.0993 14.8764 41.4339 9.3524 52.6848 7.11445C63.9357 4.87651 75.5976 6.0251 86.1957 10.415C96.7938 14.8049 105.852 22.2389 112.225 31.7769C118.598 41.315 122 52.5287 122 64C121.983 79.3772 115.866 94.1197 104.993 104.993C94.1197 115.866 79.3773 121.983 64 122Z" fill="url(#paint0_linear_32_694)"/>
<path d="M64 10C53.3198 10 42.8795 13.167 33.9992 19.1006C25.119 25.0342 18.1977 33.4679 14.1105 43.3351C10.0234 53.2023 8.95402 64.0599 11.0376 74.5349C13.1212 85.0098 18.2642 94.6317 25.8163 102.184C33.3683 109.736 42.9902 114.879 53.4651 116.962C63.9401 119.046 74.7977 117.977 84.6649 113.889C94.5321 109.802 102.966 102.881 108.899 94.0008C114.833 85.1205 118 74.6802 118 64C117.984 49.6833 112.289 35.9577 102.166 25.8342C92.0423 15.7108 78.3167 10.0163 64 10ZM64 114C54.111 114 44.444 111.068 36.2215 105.573C27.9991 100.079 21.5904 92.2705 17.806 83.1342C14.0217 73.9979 13.0315 63.9445 14.9608 54.2455C16.89 44.5464 21.6521 35.6373 28.6447 28.6447C35.6373 21.652 44.5465 16.89 54.2455 14.9607C63.9446 13.0315 73.9979 14.0216 83.1342 17.806C92.2705 21.5904 100.079 27.999 105.574 36.2215C111.068 44.4439 114 54.1109 114 64C113.985 77.2563 108.713 89.9653 99.3389 99.3389C89.9653 108.713 77.2563 113.985 64 114Z" fill="url(#paint1_linear_32_694)"/>
<path d="M64 26C64.5304 26 65.0391 25.7893 65.4142 25.4142C65.7893 25.0391 66 24.5304 66 24V20C66 19.4696 65.7893 18.9609 65.4142 18.5858C65.0391 18.2107 64.5304 18 64 18C63.4696 18 62.9609 18.2107 62.5858 18.5858C62.2107 18.9609 62 19.4696 62 20V24C62 24.5304 62.2107 25.0391 62.5858 25.4142C62.9609 25.7893 63.4696 26 64 26Z" fill="url(#paint2_linear_32_694)"/>
<path d="M34.3019 31.4736C33.9253 31.1064 33.4191 30.9023 32.8931 30.9057C32.3671 30.909 31.8635 31.1195 31.4915 31.4914C31.1196 31.8634 30.9091 32.3669 30.9058 32.893C30.9025 33.419 31.1065 33.9252 31.4737 34.3018L34.3019 37.1298C34.6791 37.4941 35.1843 37.6957 35.7087 37.6912C36.2331 37.6866 36.7348 37.4763 37.1056 37.1055C37.4764 36.7346 37.6867 36.233 37.6913 35.7086C37.6958 35.1842 37.4943 34.679 37.1299 34.3018L34.3019 31.4736Z" fill="url(#paint3_linear_32_694)"/>
<path d="M24 62H20C19.4696 62 18.9609 62.2107 18.5858 62.5858C18.2107 62.9609 18 63.4696 18 64C18 64.5304 18.2107 65.0391 18.5858 65.4142C18.9609 65.7893 19.4696 66 20 66H24C24.5304 66 25.0391 65.7893 25.4142 65.4142C25.7893 65.0391 26 64.5304 26 64C26 63.4696 25.7893 62.9609 25.4142 62.5858C25.0391 62.2107 24.5304 62 24 62Z" fill="url(#paint4_linear_32_694)"/>
<path d="M34.3017 90.8702L31.4735 93.6982C31.2839 93.883 31.1329 94.1037 31.0292 94.3473C30.9256 94.591 30.8713 94.8528 30.8697 95.1175C30.868 95.3823 30.9189 95.6448 31.0195 95.8897C31.12 96.1347 31.2682 96.3572 31.4554 96.5444C31.6426 96.7317 31.8652 96.8798 32.1101 96.9804C32.3551 97.0809 32.6175 97.1319 32.8823 97.1302C33.1471 97.1285 33.4089 97.0743 33.6525 96.9706C33.8962 96.867 34.1168 96.716 34.3017 96.5264L37.1297 93.6982C37.494 93.321 37.6956 92.8158 37.691 92.2914C37.6864 91.767 37.4761 91.2654 37.1053 90.8946C36.7345 90.5237 36.2328 90.3134 35.7085 90.3089C35.1841 90.3043 34.6789 90.5059 34.3017 90.8702Z" fill="url(#paint5_linear_32_694)"/>
<path d="M64 102C63.4696 102 62.9609 102.211 62.5858 102.586C62.2107 102.961 62 103.47 62 104V108C62 108.53 62.2107 109.039 62.5858 109.414C62.9609 109.789 63.4696 110 64 110C64.5304 110 65.0391 109.789 65.4142 109.414C65.7893 109.039 66 108.53 66 108V104C66 103.47 65.7893 102.961 65.4142 102.586C65.0391 102.211 64.5304 102 64 102Z" fill="url(#paint6_linear_32_694)"/>
<path d="M93.698 90.8702C93.3208 90.5059 92.8156 90.3043 92.2912 90.3089C91.7668 90.3134 91.2652 90.5237 90.8944 90.8946C90.5236 91.2654 90.3132 91.767 90.3087 92.2914C90.3041 92.8158 90.5057 93.321 90.87 93.6982L93.698 96.5264C93.8829 96.716 94.1035 96.867 94.3471 96.9706C94.5908 97.0743 94.8526 97.1285 95.1174 97.1302C95.3821 97.1319 95.6446 97.0809 95.8895 96.9804C96.1345 96.8798 96.357 96.7317 96.5443 96.5444C96.7315 96.3572 96.8797 96.1347 96.9802 95.8897C97.0808 95.6448 97.1317 95.3823 97.13 95.1175C97.1283 94.8528 97.0741 94.591 96.9704 94.3473C96.8668 94.1037 96.7158 93.883 96.5262 93.6982L93.698 90.8702Z" fill="url(#paint7_linear_32_694)"/>
<path d="M108 62H104C103.47 62 102.961 62.2107 102.586 62.5858C102.211 62.9609 102 63.4696 102 64C102 64.5304 102.211 65.0391 102.586 65.4142C102.961 65.7893 103.47 66 104 66H108C108.53 66 109.039 65.7893 109.414 65.4142C109.789 65.0391 110 64.5304 110 64C110 63.4696 109.789 62.9609 109.414 62.5858C109.039 62.2107 108.53 62 108 62Z" fill="url(#paint8_linear_32_694)"/>
<path d="M93.6983 31.4736L90.8703 34.3018C90.6793 34.4863 90.527 34.707 90.4221 34.951C90.3173 35.195 90.2621 35.4574 90.2598 35.723C90.2575 35.9885 90.3081 36.2519 90.4087 36.4977C90.5093 36.7435 90.6578 36.9668 90.8456 37.1546C91.0333 37.3423 91.2566 37.4909 91.5024 37.5914C91.7482 37.692 92.0116 37.7426 92.2771 37.7403C92.5427 37.738 92.8051 37.6828 93.0492 37.578C93.2932 37.4732 93.5138 37.3208 93.6983 37.1298L96.5265 34.3018C96.7161 34.1169 96.8671 33.8963 96.9708 33.6526C97.0744 33.409 97.1286 33.1472 97.1303 32.8824C97.132 32.6177 97.0811 32.3552 96.9805 32.1102C96.88 31.8653 96.7318 31.6428 96.5446 31.4555C96.3574 31.2683 96.1348 31.1201 95.8899 31.0196C95.6449 30.919 95.3825 30.8681 95.1177 30.8698C94.8529 30.8715 94.5911 30.9257 94.3475 31.0294C94.1038 31.133 93.8832 31.284 93.6983 31.4736Z" fill="url(#paint9_linear_32_694)"/>
<path d="M69.4001 66.5716C69.791 65.7705 69.9961 64.8914 70.0001 64C69.9963 62.7632 69.6097 61.558 68.8935 60.5497C68.1773 59.5414 67.1666 58.7795 66.0001 58.3686V34C66.0001 33.4696 65.7893 32.9609 65.4143 32.5858C65.0392 32.2107 64.5305 32 64.0001 32C63.4696 32 62.9609 32.2107 62.5858 32.5858C62.2108 32.9609 62.0001 33.4696 62.0001 34V58.3686C61.2304 58.6363 60.5236 59.0584 59.923 59.6091C59.3223 60.1597 58.8405 60.8273 58.5071 61.5708C58.1737 62.3143 57.9957 63.1181 57.984 63.9329C57.9724 64.7477 58.1273 65.5562 58.4393 66.309C58.7514 67.0617 59.2139 67.7428 59.7986 68.3104C60.3832 68.878 61.0777 69.3201 61.8394 69.6097C62.601 69.8993 63.4138 70.0302 64.2279 69.9944C65.042 69.9586 65.8401 69.7569 66.5735 69.4016L76.586 79.414C76.9633 79.7783 77.4685 79.9799 77.9929 79.9753C78.5172 79.9708 79.0189 79.7605 79.3897 79.3896C79.7605 79.0188 79.9708 78.5172 79.9754 77.9928C79.98 77.4684 79.7784 76.9632 79.4141 76.586L69.4001 66.5716ZM62.0001 64C62.0001 63.4696 62.2108 62.9609 62.5858 62.5858C62.9609 62.2107 63.4696 62 64.0001 62C64.5305 62 65.0392 62.2107 65.4143 62.5858C65.7893 62.9609 66.0001 63.4696 66.0001 64C66.0009 64.2665 65.9471 64.5304 65.8419 64.7753C65.7367 65.0202 65.5825 65.2409 65.3887 65.4238C65.2079 65.6084 64.9918 65.7546 64.7532 65.8536C64.5145 65.9526 64.2584 66.0024 64.0001 66C63.4698 65.9993 62.9615 65.7884 62.5866 65.4135C62.2117 65.0385 62.0007 64.5302 62.0001 64Z" fill="url(#paint10_linear_32_694)"/>
<defs>
<linearGradient id="paint0_linear_32_694" x1="2" y1="2" x2="133.237" y2="10.2023" gradientUnits="userSpaceOnUse">
<stop stop-color="#FFD600"/>
<stop offset="1" stop-color="#FFBB36"/>
</linearGradient>
<linearGradient id="paint1_linear_32_694" x1="10" y1="10" x2="124.304" y2="17.144" gradientUnits="userSpaceOnUse">
<stop stop-color="#FFD600"/>
<stop offset="1" stop-color="#FFBB36"/>
</linearGradient>
<linearGradient id="paint2_linear_32_694" x1="62" y1="18" x2="66.2459" y2="18.1327" gradientUnits="userSpaceOnUse">
<stop stop-color="#FFD600"/>
<stop offset="1" stop-color="#FFBB36"/>
</linearGradient>
<linearGradient id="paint3_linear_32_694" x1="30.9058" y1="30.9056" x2="38.0874" y2="31.3545" gradientUnits="userSpaceOnUse">
<stop stop-color="#FFD600"/>
<stop offset="1" stop-color="#FFBB36"/>
</linearGradient>
<linearGradient id="paint4_linear_32_694" x1="18" y1="62" x2="26.3692" y2="63.0462" gradientUnits="userSpaceOnUse">
<stop stop-color="#FFD600"/>
<stop offset="1" stop-color="#FFBB36"/>
</linearGradient>
<linearGradient id="paint5_linear_32_694" x1="30.8696" y1="90.3088" x2="38.0892" y2="90.76" gradientUnits="userSpaceOnUse">
<stop stop-color="#FFD600"/>
<stop offset="1" stop-color="#FFBB36"/>
</linearGradient>
<linearGradient id="paint6_linear_32_694" x1="62" y1="102" x2="66.2459" y2="102.133" gradientUnits="userSpaceOnUse">
<stop stop-color="#FFD600"/>
<stop offset="1" stop-color="#FFBB36"/>
</linearGradient>
<linearGradient id="paint7_linear_32_694" x1="90.3086" y1="90.3088" x2="97.5282" y2="90.76" gradientUnits="userSpaceOnUse">
<stop stop-color="#FFD600"/>
<stop offset="1" stop-color="#FFBB36"/>
</linearGradient>
<linearGradient id="paint8_linear_32_694" x1="102" y1="62" x2="110.369" y2="63.0462" gradientUnits="userSpaceOnUse">
<stop stop-color="#FFD600"/>
<stop offset="1" stop-color="#FFBB36"/>
</linearGradient>
<linearGradient id="paint9_linear_32_694" x1="90.2598" y1="30.8698" x2="97.5314" y2="31.3242" gradientUnits="userSpaceOnUse">
<stop stop-color="#FFD600"/>
<stop offset="1" stop-color="#FFBB36"/>
</linearGradient>
<linearGradient id="paint10_linear_32_694" x1="57.9834" y1="32" x2="81.3308" y2="32.6689" gradientUnits="userSpaceOnUse">
<stop stop-color="#FFD600"/>
<stop offset="1" stop-color="#FFBB36"/>
</linearGradient>
</defs>
</svg>
