<svg width="114" height="86" viewBox="0 0 114 86" fill="none" xmlns="http://www.w3.org/2000/svg">
<path d="M42.7583 65.0979H40.8164V67.266H42.7583V65.0979Z" fill="url(#paint0_linear_30_45)"/>
<path d="M41.7762 65.6192C42.7582 65.6192 43.5543 64.8231 43.5543 63.8411C43.5543 62.859 42.7582 62.0629 41.7762 62.0629C40.7941 62.0629 39.998 62.859 39.998 63.8411C39.998 64.8231 40.7941 65.6192 41.7762 65.6192Z" fill="url(#paint1_linear_30_45)"/>
<path d="M39.9979 68.669C40.9799 68.669 41.776 67.8729 41.776 66.8909C41.776 65.9088 40.9799 65.1127 39.9979 65.1127C39.0158 65.1127 38.2197 65.9088 38.2197 66.8909C38.2197 67.8729 39.0158 68.669 39.9979 68.669Z" fill="url(#paint2_linear_30_45)"/>
<path d="M43.554 68.669C44.5361 68.669 45.3322 67.8729 45.3322 66.8909C45.3322 65.9088 44.5361 65.1127 43.554 65.1127C42.572 65.1127 41.7759 65.9088 41.7759 66.8909C41.7759 67.8729 42.572 68.669 43.554 68.669Z" fill="url(#paint3_linear_30_45)"/>
<path fill-rule="evenodd" clip-rule="evenodd" d="M41.4512 67.0886C41.4512 67.0886 41.0242 69.3815 39.4507 70.1926H44.0857C42.5121 69.3815 42.0851 67.0886 42.0851 67.0886L41.7682 67.0925L41.4512 67.0886Z" fill="url(#paint4_linear_30_45)"/>
<path fill-rule="evenodd" clip-rule="evenodd" d="M33.901 30.128V12.128C33.901 11.1987 34.2804 10.3547 34.8914 9.74353C35.5027 9.13244 36.3468 8.75303 37.276 8.75303H46.276C47.2053 8.75303 48.0493 9.13245 48.6606 9.74353C49.2716 10.3547 49.6511 11.1987 49.6511 12.128V30.128C49.6511 31.0572 49.2716 31.9013 48.6606 32.5125C48.0493 33.1235 47.2053 33.503 46.276 33.503H37.276C36.3468 33.503 35.5027 33.1235 34.8914 32.5125C34.2804 31.9013 33.901 31.0572 33.901 30.128ZM64.3492 30.128V12.128C64.3492 11.1987 64.7286 10.3547 65.3397 9.74353C65.9509 9.13244 66.795 8.75303 67.7242 8.75303H76.7242C77.6536 8.75303 78.4975 9.13245 79.1088 9.74353C79.7199 10.3547 80.0993 11.1987 80.0993 12.128V30.128C80.0993 31.0572 79.7199 31.9013 79.1088 32.5125C78.4975 33.1235 77.6536 33.503 76.7242 33.503H67.7242C66.795 33.503 65.9509 33.1235 65.3397 32.5125C64.7286 31.9013 64.3492 31.0572 64.3492 30.128ZM90.9285 32.3665C90.9285 31.304 91.3594 30.3417 92.0558 29.6455C92.752 28.949 93.7143 28.5182 94.7768 28.5182C95.8395 28.5182 96.8016 28.949 97.4979 29.6455C98.1944 30.3417 98.6252 31.3039 98.6252 32.3665C98.6252 33.429 98.1944 34.3913 97.4979 35.0876C96.8016 35.784 95.8394 36.2149 94.7768 36.2149C93.7143 36.2149 92.752 35.784 92.0558 35.0876C91.3594 34.3913 90.9285 33.429 90.9285 32.3665ZM113.25 43C113.25 31.3091 108.469 20.6826 100.766 12.9798C93.0636 5.27709 82.4371 0.496063 70.7462 0.496063H43.2539C31.5631 0.496063 20.9365 5.27711 13.2338 12.9798C5.53103 20.6826 0.75 31.3091 0.75 43C0.75 54.6908 5.53104 65.3174 13.2338 73.0201C20.9365 80.7228 31.5631 85.5039 43.2539 85.5039H70.7462C82.4371 85.5039 93.0636 80.7228 100.766 73.0201C108.469 65.3174 113.25 54.6908 113.25 43V43ZM94.7768 49.7851C95.8394 49.7851 96.8016 50.216 97.4979 50.9124C98.1944 51.6087 98.6252 52.571 98.6252 53.6334C98.6252 54.6961 98.1944 55.6582 97.4979 56.3545C96.8016 57.051 95.8395 57.4818 94.7768 57.4818C93.7144 57.4818 92.7521 57.051 92.0558 56.3545C91.3594 55.6582 90.9285 54.696 90.9285 53.6334C90.9285 52.571 91.3594 51.6087 92.0558 50.9124C92.7521 50.216 93.7144 49.7851 94.7768 49.7851ZM94.7768 39.1517C95.8395 39.1517 96.8016 39.5825 97.4979 40.2789C98.1944 40.9752 98.6252 41.9374 98.6252 43C98.6252 44.0627 98.1944 45.0248 97.4979 45.7211C96.8016 46.4175 95.8395 46.8483 94.7768 46.8483C93.7144 46.8483 92.7521 46.4175 92.0558 45.7211C91.3594 45.0248 90.9285 44.0626 90.9285 43C90.9285 41.9374 91.3594 40.9752 92.0558 40.2789C92.7521 39.5825 93.7144 39.1517 94.7768 39.1517V39.1517ZM19.2231 28.5182C20.2856 28.5182 21.2479 28.949 21.9442 29.6455C22.6406 30.3418 23.0715 31.304 23.0715 32.3666C23.0715 33.429 22.6406 34.3913 21.9442 35.0876C21.2479 35.784 20.2856 36.2149 19.2231 36.2149C18.1606 36.2149 17.1984 35.784 16.5021 35.0876C15.8056 34.3913 15.3748 33.429 15.3748 32.3666C15.3748 31.3039 15.8056 30.3418 16.5021 29.6455C17.1984 28.949 18.1605 28.5182 19.2231 28.5182ZM19.2231 39.1517C20.2856 39.1517 21.2479 39.5825 21.9442 40.2789C22.6406 40.9752 23.0715 41.9374 23.0715 43C23.0715 44.0626 22.6406 45.0248 21.9442 45.7211C21.2479 46.4175 20.2856 46.8483 19.2231 46.8483C18.1605 46.8483 17.1984 46.4175 16.5021 45.7211C15.8056 45.0248 15.3748 44.0627 15.3748 43C15.3748 41.9374 15.8056 40.9752 16.5021 40.2789C17.1984 39.5825 18.1605 39.1517 19.2231 39.1517V39.1517ZM19.2231 49.7851C20.2856 49.7851 21.2479 50.216 21.9442 50.9124C22.6406 51.6087 23.0715 52.571 23.0715 53.6334C23.0715 54.696 22.6406 55.6582 21.9442 56.3545C21.2479 57.051 20.2856 57.4818 19.2231 57.4818C18.1605 57.4818 17.1984 57.051 16.5021 56.3545C15.8056 55.6582 15.3748 54.6961 15.3748 53.6334C15.3748 52.571 15.8056 51.6087 16.5021 50.9124C17.1984 50.216 18.1606 49.7851 19.2231 49.7851ZM37.2757 53.7528H46.2757C47.205 53.7528 48.049 54.1322 48.6602 54.7433C49.2713 55.3545 49.6507 56.1985 49.6507 57.1278V75.1278C49.6507 76.057 49.2713 76.9011 48.6602 77.5123C48.049 78.1233 47.205 78.5027 46.2757 78.5027H37.2757C36.3464 78.5027 35.5024 78.1233 34.8911 77.5123C34.28 76.9011 33.9006 76.057 33.9006 75.1278V57.1278C33.9006 56.1985 34.28 55.3545 34.8911 54.7433C35.5024 54.1322 36.3464 53.7528 37.2757 53.7528ZM67.7239 53.7528H76.7239C77.6532 53.7528 78.4972 54.1322 79.1084 54.7433C79.7195 55.3545 80.099 56.1985 80.099 57.1278V75.1278C80.099 76.057 79.7195 76.9011 79.1084 77.5123C78.4972 78.1233 77.6532 78.5027 76.7239 78.5027H67.7239C66.7947 78.5027 65.9506 78.1233 65.3393 77.5123C64.7283 76.9011 64.3489 76.057 64.3489 75.1278V57.1278C64.3489 56.1985 64.7283 55.3545 65.3393 54.7433C65.9506 54.1322 66.7947 53.7528 67.7239 53.7528Z" fill="url(#paint5_linear_30_45)"/>
<path fill-rule="evenodd" clip-rule="evenodd" d="M39.3194 13.9741V13.0509C39.3194 12.4296 38.8156 11.9258 38.1943 11.9258C37.5731 11.9258 37.0693 12.4296 37.0693 13.0509V13.9741C37.0693 14.5954 37.5731 15.0992 38.1943 15.0992C38.8156 15.0992 39.3194 14.5954 39.3194 13.9741Z" fill="url(#paint6_linear_30_45)"/>
<path fill-rule="evenodd" clip-rule="evenodd" d="M46.4825 13.9741V13.0509C46.4825 12.4296 45.9787 11.9258 45.3574 11.9258C44.7361 11.9258 44.2324 12.4296 44.2324 13.0509V13.9741C44.2324 14.5954 44.7361 15.0992 45.3574 15.0992C45.9787 15.0992 46.4825 14.5954 46.4825 13.9741Z" fill="url(#paint7_linear_30_45)"/>
<path fill-rule="evenodd" clip-rule="evenodd" d="M39.3194 29.6006V28.6774C39.3194 28.0561 38.8156 27.5523 38.1943 27.5523C37.5731 27.5523 37.0693 28.0561 37.0693 28.6774V29.6006C37.0693 30.2219 37.5731 30.7257 38.1943 30.7257C38.8156 30.7257 39.3194 30.2219 39.3194 29.6006Z" fill="url(#paint8_linear_30_45)"/>
<path fill-rule="evenodd" clip-rule="evenodd" d="M46.4825 29.6006V28.6774C46.4825 28.0561 45.9787 27.5523 45.3574 27.5523C44.7361 27.5523 44.2324 28.0561 44.2324 28.6774V29.6006C44.2324 30.2219 44.7361 30.7257 45.3574 30.7257C45.9787 30.7257 46.4825 30.2219 46.4825 29.6006Z" fill="url(#paint9_linear_30_45)"/>
<path fill-rule="evenodd" clip-rule="evenodd" d="M69.7676 13.9741V13.0509C69.7676 12.4296 69.2639 11.9258 68.6426 11.9258C68.0213 11.9258 67.5176 12.4296 67.5176 13.0509V13.9741C67.5176 14.5954 68.0213 15.0992 68.6426 15.0992C69.2639 15.0992 69.7676 14.5954 69.7676 13.9741Z" fill="url(#paint10_linear_30_45)"/>
<path fill-rule="evenodd" clip-rule="evenodd" d="M76.9307 13.9741V13.0509C76.9307 12.4296 76.427 11.9258 75.8057 11.9258C75.1844 11.9258 74.6807 12.4296 74.6807 13.0509V13.9741C74.6807 14.5954 75.1844 15.0992 75.8057 15.0992C76.427 15.0992 76.9307 14.5954 76.9307 13.9741Z" fill="url(#paint11_linear_30_45)"/>
<path fill-rule="evenodd" clip-rule="evenodd" d="M69.7676 29.6006V28.6774C69.7676 28.0561 69.2639 27.5523 68.6426 27.5523C68.0213 27.5523 67.5176 28.0561 67.5176 28.6774V29.6006C67.5176 30.2219 68.0213 30.7257 68.6426 30.7257C69.2639 30.7257 69.7676 30.2219 69.7676 29.6006Z" fill="url(#paint12_linear_30_45)"/>
<path fill-rule="evenodd" clip-rule="evenodd" d="M76.9307 29.6006V28.6774C76.9307 28.0561 76.427 27.5523 75.8057 27.5523C75.1844 27.5523 74.6807 28.0561 74.6807 28.6774V29.6006C74.6807 30.2219 75.1844 30.7257 75.8057 30.7257C76.427 30.7257 76.9307 30.2219 76.9307 29.6006Z" fill="url(#paint13_linear_30_45)"/>
<path fill-rule="evenodd" clip-rule="evenodd" d="M39.3194 58.9741V58.0509C39.3194 57.4296 38.8156 56.9258 38.1943 56.9258C37.5731 56.9258 37.0693 57.4296 37.0693 58.0509V58.9741C37.0693 59.5954 37.5731 60.0992 38.1943 60.0992C38.8156 60.0992 39.3194 59.5954 39.3194 58.9741Z" fill="url(#paint14_linear_30_45)"/>
<path fill-rule="evenodd" clip-rule="evenodd" d="M46.4825 58.9741V58.0509C46.4825 57.4296 45.9787 56.9258 45.3574 56.9258C44.7361 56.9258 44.2324 57.4296 44.2324 58.0509V58.9741C44.2324 59.5954 44.7361 60.0992 45.3574 60.0992C45.9787 60.0992 46.4825 59.5954 46.4825 58.9741Z" fill="url(#paint15_linear_30_45)"/>
<path fill-rule="evenodd" clip-rule="evenodd" d="M39.3194 74.6004V73.6771C39.3194 73.0558 38.8156 72.5521 38.1943 72.5521C37.5731 72.5521 37.0693 73.0558 37.0693 73.6771V74.6004C37.0693 75.2216 37.5731 75.7254 38.1943 75.7254C38.8156 75.7254 39.3194 75.2216 39.3194 74.6004Z" fill="url(#paint16_linear_30_45)"/>
<path fill-rule="evenodd" clip-rule="evenodd" d="M46.4825 74.6004V73.6771C46.4825 73.0558 45.9787 72.5521 45.3574 72.5521C44.7361 72.5521 44.2324 73.0558 44.2324 73.6771V74.6004C44.2324 75.2216 44.7361 75.7254 45.3574 75.7254C45.9787 75.7254 46.4825 75.2216 46.4825 74.6004Z" fill="url(#paint17_linear_30_45)"/>
<path fill-rule="evenodd" clip-rule="evenodd" d="M69.7676 58.0506C69.7676 57.4293 69.2639 56.9254 68.6426 56.9254C68.0213 56.9254 67.5176 57.4293 67.5176 58.0506V58.9738C67.5176 59.5951 68.0213 60.0988 68.6426 60.0988C69.2639 60.0988 69.7676 59.5951 69.7676 58.9738V58.0506Z" fill="url(#paint18_linear_30_45)"/>
<path fill-rule="evenodd" clip-rule="evenodd" d="M76.9307 58.9741V58.0509C76.9307 57.4296 76.427 56.9258 75.8057 56.9258C75.1844 56.9258 74.6807 57.4296 74.6807 58.0509V58.9741C74.6807 59.5954 75.1844 60.0992 75.8057 60.0992C76.427 60.0992 76.9307 59.5954 76.9307 58.9741Z" fill="url(#paint19_linear_30_45)"/>
<path fill-rule="evenodd" clip-rule="evenodd" d="M68.6426 75.7254C69.2639 75.7254 69.7676 75.2216 69.7676 74.6003V73.677C69.7676 73.0558 69.2639 72.552 68.6426 72.552C68.0213 72.552 67.5176 73.0558 67.5176 73.677V74.6003C67.5176 75.2216 68.0213 75.7254 68.6426 75.7254Z" fill="url(#paint20_linear_30_45)"/>
<path fill-rule="evenodd" clip-rule="evenodd" d="M76.9307 74.6004V73.6771C76.9307 73.0558 76.427 72.5521 75.8057 72.5521C75.1844 72.5521 74.6807 73.0558 74.6807 73.6771V74.6004C74.6807 75.2216 75.1844 75.7254 75.8057 75.7254C76.427 75.7254 76.9307 75.2216 76.9307 74.6004Z" fill="url(#paint21_linear_30_45)"/>
<path fill-rule="evenodd" clip-rule="evenodd" d="M41.7774 17.0633C41.4035 17.7172 40.7712 18.5235 39.9748 19.3199C39.1756 20.1192 38.3661 20.7532 37.7109 21.1266C38.3648 21.5006 39.1712 22.1329 39.9676 22.9293C40.7669 23.7285 41.4009 24.5379 41.7743 25.1932C42.1483 24.5392 42.7806 23.7328 43.577 22.9365C44.3762 22.1372 45.1856 21.5032 45.8408 21.1298C45.1869 20.7558 44.3805 20.1235 43.5842 19.3271C42.7849 18.5279 42.1509 17.7185 41.7774 17.0633Z" fill="url(#paint22_linear_30_45)"/>
<path fill-rule="evenodd" clip-rule="evenodd" d="M71.9073 22.0891C71.9073 22.0891 71.4803 24.3821 69.9067 25.1932H74.5418C72.9682 24.3821 72.5411 22.0891 72.5411 22.0891L72.2242 22.0931L71.9073 22.0891H71.9073Z" fill="url(#paint23_linear_30_45)"/>
<path d="M72.2243 22.4367C71.8109 23.2634 71.3976 23.6767 70.5709 23.6767C69.6582 23.6767 68.9175 22.936 68.9175 22.0233C68.9175 20.3699 70.5709 18.7165 72.2243 17.0632C73.8777 18.7165 75.531 20.3699 75.531 22.0233C75.531 22.936 74.7903 23.6767 73.8777 23.6767C73.0509 23.6767 72.6376 23.2634 72.2243 22.4367H72.2243Z" fill="url(#paint24_linear_30_45)"/>
<path d="M72.2241 63.5877C72.7322 62.5715 73.2403 62.0633 74.2566 62.0633C75.3785 62.0633 76.2891 62.9739 76.2891 64.0958C76.2891 66.1283 74.2566 68.1607 72.2241 70.1932C70.1917 68.1607 68.1592 66.1283 68.1592 64.0958C68.1592 62.9739 69.0697 62.0633 70.1917 62.0633C71.2078 62.0633 71.716 62.5715 72.2241 63.5877Z" fill="url(#paint25_linear_30_45)"/>
<defs>
<linearGradient id="paint0_linear_30_45" x1="40.8164" y1="65.0979" x2="42.8732" y2="65.213" gradientUnits="userSpaceOnUse">
<stop stop-color="#FFD600"/>
<stop offset="1" stop-color="#FFBB36"/>
</linearGradient>
<linearGradient id="paint1_linear_30_45" x1="39.998" y1="62.0629" x2="43.7619" y2="62.2982" gradientUnits="userSpaceOnUse">
<stop stop-color="#FFD600"/>
<stop offset="1" stop-color="#FFBB36"/>
</linearGradient>
<linearGradient id="paint2_linear_30_45" x1="38.2197" y1="65.1127" x2="41.9836" y2="65.348" gradientUnits="userSpaceOnUse">
<stop stop-color="#FFD600"/>
<stop offset="1" stop-color="#FFBB36"/>
</linearGradient>
<linearGradient id="paint3_linear_30_45" x1="41.7759" y1="65.1127" x2="45.5397" y2="65.348" gradientUnits="userSpaceOnUse">
<stop stop-color="#FFD600"/>
<stop offset="1" stop-color="#FFBB36"/>
</linearGradient>
<linearGradient id="paint4_linear_30_45" x1="39.4507" y1="67.0886" x2="44.3329" y2="67.5443" gradientUnits="userSpaceOnUse">
<stop stop-color="#FFD600"/>
<stop offset="1" stop-color="#FFBB36"/>
</linearGradient>
<linearGradient id="paint5_linear_30_45" x1="0.75" y1="0.496063" x2="119.469" y2="10.3157" gradientUnits="userSpaceOnUse">
<stop stop-color="#FFD600"/>
<stop offset="1" stop-color="#FFBB36"/>
</linearGradient>
<linearGradient id="paint6_linear_30_45" x1="37.0693" y1="11.9258" x2="39.4553" y2="12.0316" gradientUnits="userSpaceOnUse">
<stop stop-color="#FFD600"/>
<stop offset="1" stop-color="#FFBB36"/>
</linearGradient>
<linearGradient id="paint7_linear_30_45" x1="44.2324" y1="11.9258" x2="46.6184" y2="12.0316" gradientUnits="userSpaceOnUse">
<stop stop-color="#FFD600"/>
<stop offset="1" stop-color="#FFBB36"/>
</linearGradient>
<linearGradient id="paint8_linear_30_45" x1="37.0693" y1="27.5523" x2="39.4553" y2="27.6581" gradientUnits="userSpaceOnUse">
<stop stop-color="#FFD600"/>
<stop offset="1" stop-color="#FFBB36"/>
</linearGradient>
<linearGradient id="paint9_linear_30_45" x1="44.2324" y1="27.5523" x2="46.6184" y2="27.6581" gradientUnits="userSpaceOnUse">
<stop stop-color="#FFD600"/>
<stop offset="1" stop-color="#FFBB36"/>
</linearGradient>
<linearGradient id="paint10_linear_30_45" x1="67.5176" y1="11.9258" x2="69.9035" y2="12.0316" gradientUnits="userSpaceOnUse">
<stop stop-color="#FFD600"/>
<stop offset="1" stop-color="#FFBB36"/>
</linearGradient>
<linearGradient id="paint11_linear_30_45" x1="74.6807" y1="11.9258" x2="77.0666" y2="12.0316" gradientUnits="userSpaceOnUse">
<stop stop-color="#FFD600"/>
<stop offset="1" stop-color="#FFBB36"/>
</linearGradient>
<linearGradient id="paint12_linear_30_45" x1="67.5176" y1="27.5523" x2="69.9035" y2="27.6581" gradientUnits="userSpaceOnUse">
<stop stop-color="#FFD600"/>
<stop offset="1" stop-color="#FFBB36"/>
</linearGradient>
<linearGradient id="paint13_linear_30_45" x1="74.6807" y1="27.5523" x2="77.0666" y2="27.6581" gradientUnits="userSpaceOnUse">
<stop stop-color="#FFD600"/>
<stop offset="1" stop-color="#FFBB36"/>
</linearGradient>
<linearGradient id="paint14_linear_30_45" x1="37.0693" y1="56.9258" x2="39.4553" y2="57.0315" gradientUnits="userSpaceOnUse">
<stop stop-color="#FFD600"/>
<stop offset="1" stop-color="#FFBB36"/>
</linearGradient>
<linearGradient id="paint15_linear_30_45" x1="44.2324" y1="56.9258" x2="46.6184" y2="57.0315" gradientUnits="userSpaceOnUse">
<stop stop-color="#FFD600"/>
<stop offset="1" stop-color="#FFBB36"/>
</linearGradient>
<linearGradient id="paint16_linear_30_45" x1="37.0693" y1="72.5521" x2="39.4553" y2="72.6578" gradientUnits="userSpaceOnUse">
<stop stop-color="#FFD600"/>
<stop offset="1" stop-color="#FFBB36"/>
</linearGradient>
<linearGradient id="paint17_linear_30_45" x1="44.2324" y1="72.5521" x2="46.6184" y2="72.6578" gradientUnits="userSpaceOnUse">
<stop stop-color="#FFD600"/>
<stop offset="1" stop-color="#FFBB36"/>
</linearGradient>
<linearGradient id="paint18_linear_30_45" x1="67.5176" y1="56.9254" x2="69.9035" y2="57.0312" gradientUnits="userSpaceOnUse">
<stop stop-color="#FFD600"/>
<stop offset="1" stop-color="#FFBB36"/>
</linearGradient>
<linearGradient id="paint19_linear_30_45" x1="74.6807" y1="56.9258" x2="77.0666" y2="57.0315" gradientUnits="userSpaceOnUse">
<stop stop-color="#FFD600"/>
<stop offset="1" stop-color="#FFBB36"/>
</linearGradient>
<linearGradient id="paint20_linear_30_45" x1="67.5176" y1="72.552" x2="69.9035" y2="72.6578" gradientUnits="userSpaceOnUse">
<stop stop-color="#FFD600"/>
<stop offset="1" stop-color="#FFBB36"/>
</linearGradient>
<linearGradient id="paint21_linear_30_45" x1="74.6807" y1="72.5521" x2="77.0666" y2="72.6578" gradientUnits="userSpaceOnUse">
<stop stop-color="#FFD600"/>
<stop offset="1" stop-color="#FFBB36"/>
</linearGradient>
<linearGradient id="paint22_linear_30_45" x1="37.7109" y1="17.0633" x2="46.3153" y2="17.601" gradientUnits="userSpaceOnUse">
<stop stop-color="#FFD600"/>
<stop offset="1" stop-color="#FFBB36"/>
</linearGradient>
<linearGradient id="paint23_linear_30_45" x1="69.9067" y1="22.0891" x2="74.7889" y2="22.5448" gradientUnits="userSpaceOnUse">
<stop stop-color="#FFD600"/>
<stop offset="1" stop-color="#FFBB36"/>
</linearGradient>
<linearGradient id="paint24_linear_30_45" x1="68.9175" y1="17.0632" x2="75.917" y2="17.5007" gradientUnits="userSpaceOnUse">
<stop stop-color="#FFD600"/>
<stop offset="1" stop-color="#FFBB36"/>
</linearGradient>
<linearGradient id="paint25_linear_30_45" x1="68.1592" y1="62.0633" x2="76.7636" y2="62.6011" gradientUnits="userSpaceOnUse">
<stop stop-color="#FFD600"/>
<stop offset="1" stop-color="#FFBB36"/>
</linearGradient>
</defs>
</svg>
