<svg width="100" height="100" viewBox="0 0 100 100" fill="none" xmlns="http://www.w3.org/2000/svg">
<path d="M100 50C100 77.6142 77.6142 100 50 100C22.3858 100 0 77.6142 0 50C0 22.3858 22.3858 0 50 0C77.6142 0 100 22.3858 100 50Z" fill="#161616" fill-opacity="0.3"/>
<path fill-rule="evenodd" clip-rule="evenodd" d="M50 97C75.9574 97 97 75.9574 97 50C97 24.0426 75.9574 3 50 3C24.0426 3 3 24.0426 3 50C3 75.9574 24.0426 97 50 97ZM50 100C77.6142 100 100 77.6142 100 50C100 22.3858 77.6142 0 50 0C22.3858 0 0 22.3858 0 50C0 77.6142 22.3858 100 50 100Z" fill="url(#paint0_linear_32_412)" fill-opacity="0.3"/>
<path d="M50 35L32 53.6429V64L50 45.3571V35Z" fill="white"/>
<path d="M50 35L68 53.6429V64L50 45.3571V35Z" fill="white"/>
<defs>
<linearGradient id="paint0_linear_32_412" x1="0" y1="0" x2="105.837" y2="6.61479" gradientUnits="userSpaceOnUse">
<stop stop-color="#FFD600"/>
<stop offset="1" stop-color="#FFBB36"/>
</linearGradient>
</defs>
</svg>
